<mxfile host="app.diagrams.net" modified="2022-04-21T17:09:00.301Z" agent="5.0 (Macintosh; Intel Mac OS X 10_15_7) AppleWebKit/537.36 (KHTML, like Gecko) Chrome/100.0.4896.127 Safari/537.36" etag="TWUxqmYMB-ljmV41bB4k" version="17.4.3" type="github" pages="3">
  <diagram id="0zv-W3ntuYn0bhFaIOgg" name="Page-1">
    <mxGraphModel dx="712" dy="400" grid="1" gridSize="1" guides="1" tooltips="1" connect="1" arrows="1" fold="1" page="1" pageScale="1" pageWidth="827" pageHeight="1169" background="#4D5766" math="0" shadow="0">
      <root>
        <mxCell id="0" />
        <mxCell id="1" parent="0" />
        <mxCell id="8yuuRg_ypmcoJ9JSNkmN-1" style="rounded=0;orthogonalLoop=1;jettySize=auto;html=1;exitX=0.5;exitY=0;exitDx=0;exitDy=0;startSize=6;endArrow=none;endFill=0;endSize=2;fontFamily=Manrope;fontSize=8;strokeColor=#98A2AE;fontSource=https%3A%2F%2Ffonts.googleapis.com%2Fcss%3Ffamily%3DManrope;entryX=0.5;entryY=1;entryDx=0;entryDy=0;" edge="1" parent="1" source="8yuuRg_ypmcoJ9JSNkmN-11" target="8yuuRg_ypmcoJ9JSNkmN-23">
          <mxGeometry relative="1" as="geometry">
            <mxPoint x="317" y="326" as="sourcePoint" />
            <mxPoint x="354" y="302" as="targetPoint" />
          </mxGeometry>
        </mxCell>
        <mxCell id="8yuuRg_ypmcoJ9JSNkmN-2" style="rounded=0;orthogonalLoop=1;jettySize=auto;html=1;exitX=0.5;exitY=0;exitDx=0;exitDy=0;entryX=0.5;entryY=1;entryDx=0;entryDy=0;startSize=6;endArrow=none;endFill=0;endSize=2;fontFamily=Manrope;fontSize=8;strokeColor=#98A2AE;fontSource=https%3A%2F%2Ffonts.googleapis.com%2Fcss%3Ffamily%3DManrope;" edge="1" parent="1" source="8yuuRg_ypmcoJ9JSNkmN-5" target="8yuuRg_ypmcoJ9JSNkmN-23">
          <mxGeometry relative="1" as="geometry">
            <mxPoint x="319" y="328" as="sourcePoint" />
            <mxPoint x="341" y="304" as="targetPoint" />
          </mxGeometry>
        </mxCell>
        <mxCell id="8yuuRg_ypmcoJ9JSNkmN-3" value="&lt;font&gt;leaf1&lt;br&gt;&lt;/font&gt;" style="text;html=1;align=center;verticalAlign=middle;resizable=0;points=[];autosize=1;fontSize=10;fontFamily=Manrope;fontStyle=0;fontColor=#FFFFFF;" vertex="1" parent="1">
          <mxGeometry x="256" y="343" width="32" height="17" as="geometry" />
        </mxCell>
        <mxCell id="8yuuRg_ypmcoJ9JSNkmN-4" value="" style="group;fontFamily=Manrope;fontSource=https%3A%2F%2Ffonts.googleapis.com%2Fcss%3Ffamily%3DManrope;" vertex="1" connectable="0" parent="1">
          <mxGeometry x="413" y="357.21" width="30" height="30" as="geometry" />
        </mxCell>
        <mxCell id="8yuuRg_ypmcoJ9JSNkmN-5" value="" style="whiteSpace=wrap;html=1;aspect=fixed;fillColor=#001135;strokeColor=none;connectable=1;allowArrows=1;fontFamily=Manrope;fontSource=https%3A%2F%2Ffonts.googleapis.com%2Fcss%3Ffamily%3DManrope;" vertex="1" parent="8yuuRg_ypmcoJ9JSNkmN-4">
          <mxGeometry width="30" height="30" as="geometry" />
        </mxCell>
        <mxCell id="8yuuRg_ypmcoJ9JSNkmN-6" value="" style="endArrow=open;html=1;edgeStyle=orthogonalEdgeStyle;rounded=0;endFill=0;startSize=6;endSize=2;strokeColor=#FFFFFF;fontFamily=Manrope;fontSource=https%3A%2F%2Ffonts.googleapis.com%2Fcss%3Ffamily%3DManrope;" edge="1" parent="8yuuRg_ypmcoJ9JSNkmN-4">
          <mxGeometry width="50" height="50" relative="1" as="geometry">
            <mxPoint x="3" y="12" as="sourcePoint" />
            <mxPoint x="11" y="3" as="targetPoint" />
            <Array as="points">
              <mxPoint x="11" y="12" />
            </Array>
          </mxGeometry>
        </mxCell>
        <mxCell id="8yuuRg_ypmcoJ9JSNkmN-7" value="" style="endArrow=open;html=1;edgeStyle=orthogonalEdgeStyle;rounded=0;endFill=0;startSize=6;endSize=2;strokeColor=#FFFFFF;fontFamily=Manrope;fontSource=https%3A%2F%2Ffonts.googleapis.com%2Fcss%3Ffamily%3DManrope;" edge="1" parent="8yuuRg_ypmcoJ9JSNkmN-4">
          <mxGeometry width="50" height="50" relative="1" as="geometry">
            <mxPoint x="11" y="27" as="sourcePoint" />
            <mxPoint x="3" y="19" as="targetPoint" />
            <Array as="points">
              <mxPoint x="11" y="19" />
            </Array>
          </mxGeometry>
        </mxCell>
        <mxCell id="8yuuRg_ypmcoJ9JSNkmN-8" value="" style="endArrow=open;html=1;edgeStyle=orthogonalEdgeStyle;rounded=0;endFill=0;startSize=6;endSize=2;strokeColor=#FFFFFF;fontFamily=Manrope;fontSource=https%3A%2F%2Ffonts.googleapis.com%2Fcss%3Ffamily%3DManrope;" edge="1" parent="8yuuRg_ypmcoJ9JSNkmN-4">
          <mxGeometry width="50" height="50" relative="1" as="geometry">
            <mxPoint x="18" y="3" as="sourcePoint" />
            <mxPoint x="27" y="12" as="targetPoint" />
            <Array as="points">
              <mxPoint x="18" y="12" />
            </Array>
          </mxGeometry>
        </mxCell>
        <mxCell id="8yuuRg_ypmcoJ9JSNkmN-9" value="" style="endArrow=open;html=1;edgeStyle=orthogonalEdgeStyle;rounded=0;endFill=0;startSize=6;endSize=2;strokeColor=#FFFFFF;fontFamily=Manrope;fontSource=https%3A%2F%2Ffonts.googleapis.com%2Fcss%3Ffamily%3DManrope;" edge="1" parent="8yuuRg_ypmcoJ9JSNkmN-4">
          <mxGeometry width="50" height="50" relative="1" as="geometry">
            <mxPoint x="27" y="19" as="sourcePoint" />
            <mxPoint x="18" y="27" as="targetPoint" />
            <Array as="points">
              <mxPoint x="18" y="19" />
            </Array>
          </mxGeometry>
        </mxCell>
        <mxCell id="8yuuRg_ypmcoJ9JSNkmN-10" value="" style="group" vertex="1" connectable="0" parent="1">
          <mxGeometry x="281" y="357.21" width="30" height="30" as="geometry" />
        </mxCell>
        <mxCell id="8yuuRg_ypmcoJ9JSNkmN-11" value="" style="whiteSpace=wrap;html=1;aspect=fixed;fillColor=#001135;strokeColor=none;connectable=1;allowArrows=1;fontFamily=Manrope;fontSource=https%3A%2F%2Ffonts.googleapis.com%2Fcss%3Ffamily%3DManrope;" vertex="1" parent="8yuuRg_ypmcoJ9JSNkmN-10">
          <mxGeometry width="30" height="30" as="geometry" />
        </mxCell>
        <mxCell id="8yuuRg_ypmcoJ9JSNkmN-12" value="" style="endArrow=open;html=1;edgeStyle=orthogonalEdgeStyle;rounded=0;endFill=0;startSize=6;endSize=2;strokeColor=#FFFFFF;fontFamily=Manrope;fontSource=https%3A%2F%2Ffonts.googleapis.com%2Fcss%3Ffamily%3DManrope;" edge="1" parent="8yuuRg_ypmcoJ9JSNkmN-10">
          <mxGeometry width="50" height="50" as="geometry">
            <mxPoint x="3" y="12" as="sourcePoint" />
            <mxPoint x="11" y="3" as="targetPoint" />
            <Array as="points">
              <mxPoint x="11" y="12" />
            </Array>
          </mxGeometry>
        </mxCell>
        <mxCell id="8yuuRg_ypmcoJ9JSNkmN-13" value="" style="endArrow=open;html=1;edgeStyle=orthogonalEdgeStyle;rounded=0;endFill=0;startSize=6;endSize=2;strokeColor=#FFFFFF;fontFamily=Manrope;fontSource=https%3A%2F%2Ffonts.googleapis.com%2Fcss%3Ffamily%3DManrope;" edge="1" parent="8yuuRg_ypmcoJ9JSNkmN-10">
          <mxGeometry width="50" height="50" as="geometry">
            <mxPoint x="11" y="27" as="sourcePoint" />
            <mxPoint x="3" y="19" as="targetPoint" />
            <Array as="points">
              <mxPoint x="11" y="19" />
            </Array>
          </mxGeometry>
        </mxCell>
        <mxCell id="8yuuRg_ypmcoJ9JSNkmN-14" value="" style="endArrow=open;html=1;edgeStyle=orthogonalEdgeStyle;rounded=0;endFill=0;startSize=6;endSize=2;strokeColor=#FFFFFF;fontFamily=Manrope;fontSource=https%3A%2F%2Ffonts.googleapis.com%2Fcss%3Ffamily%3DManrope;" edge="1" parent="8yuuRg_ypmcoJ9JSNkmN-10">
          <mxGeometry width="50" height="50" as="geometry">
            <mxPoint x="18" y="3" as="sourcePoint" />
            <mxPoint x="27" y="12" as="targetPoint" />
            <Array as="points">
              <mxPoint x="18" y="12" />
            </Array>
          </mxGeometry>
        </mxCell>
        <mxCell id="8yuuRg_ypmcoJ9JSNkmN-15" value="" style="endArrow=open;html=1;edgeStyle=orthogonalEdgeStyle;rounded=0;endFill=0;startSize=6;endSize=2;strokeColor=#FFFFFF;fontFamily=Manrope;fontSource=https%3A%2F%2Ffonts.googleapis.com%2Fcss%3Ffamily%3DManrope;" edge="1" parent="8yuuRg_ypmcoJ9JSNkmN-10">
          <mxGeometry width="50" height="50" as="geometry">
            <mxPoint x="27" y="19" as="sourcePoint" />
            <mxPoint x="18" y="27" as="targetPoint" />
            <Array as="points">
              <mxPoint x="18" y="19" />
            </Array>
          </mxGeometry>
        </mxCell>
        <mxCell id="8yuuRg_ypmcoJ9JSNkmN-16" value="&lt;font&gt;leaf3&lt;br&gt;&lt;/font&gt;" style="text;html=1;align=center;verticalAlign=middle;resizable=0;points=[];autosize=1;fontSize=10;fontFamily=Manrope;fontStyle=0;fontColor=#FFFFFF;" vertex="1" parent="1">
          <mxGeometry x="387" y="343" width="34" height="17" as="geometry" />
        </mxCell>
        <mxCell id="8yuuRg_ypmcoJ9JSNkmN-17" value="&lt;font&gt;spine1&lt;br&gt;&lt;/font&gt;" style="text;html=1;align=center;verticalAlign=middle;resizable=0;points=[];autosize=1;fontSize=10;fontFamily=Manrope;fontStyle=0;fontColor=#FFFFFF;connectable=0;" vertex="1" parent="1">
          <mxGeometry x="361.5" y="254" width="40" height="17" as="geometry" />
        </mxCell>
        <mxCell id="8yuuRg_ypmcoJ9JSNkmN-18" value="&lt;font style=&quot;font-size: 10px&quot;&gt;client1&lt;/font&gt;" style="text;html=1;align=center;verticalAlign=middle;resizable=0;points=[];autosize=1;fontSize=10;fontFamily=Manrope;fontStyle=0;fontColor=#FFFFFF;" vertex="1" parent="1">
          <mxGeometry x="297" y="440.44" width="41" height="17" as="geometry" />
        </mxCell>
        <mxCell id="8yuuRg_ypmcoJ9JSNkmN-19" style="rounded=0;orthogonalLoop=1;jettySize=auto;html=1;exitX=0.5;exitY=0;exitDx=0;exitDy=0;startSize=6;endArrow=none;endFill=0;endSize=2;fontFamily=Manrope;fontSize=8;strokeColor=#98A2AE;fontSource=https%3A%2F%2Ffonts.googleapis.com%2Fcss%3Ffamily%3DManrope;entryX=0.5;entryY=1;entryDx=0;entryDy=0;" edge="1" parent="1" source="8yuuRg_ypmcoJ9JSNkmN-28" target="8yuuRg_ypmcoJ9JSNkmN-11">
          <mxGeometry relative="1" as="geometry">
            <mxPoint x="317.0987037037037" y="424" as="sourcePoint" />
            <mxPoint x="375" y="259" as="targetPoint" />
          </mxGeometry>
        </mxCell>
        <mxCell id="8yuuRg_ypmcoJ9JSNkmN-20" value="&lt;font style=&quot;font-size: 10px&quot;&gt;client2&lt;/font&gt;" style="text;html=1;align=center;verticalAlign=middle;resizable=0;points=[];autosize=1;fontSize=10;fontFamily=Manrope;fontStyle=0;fontColor=#FFFFFF;" vertex="1" parent="1">
          <mxGeometry x="427" y="440.44" width="43" height="17" as="geometry" />
        </mxCell>
        <mxCell id="8yuuRg_ypmcoJ9JSNkmN-21" style="rounded=0;orthogonalLoop=1;jettySize=auto;html=1;startSize=6;endArrow=none;endFill=0;endSize=2;fontFamily=Manrope;fontSize=8;strokeColor=#98A2AE;fontSource=https%3A%2F%2Ffonts.googleapis.com%2Fcss%3Ffamily%3DManrope;entryX=0.5;entryY=0;entryDx=0;entryDy=0;exitX=0.5;exitY=1;exitDx=0;exitDy=0;" edge="1" parent="1" source="8yuuRg_ypmcoJ9JSNkmN-5" target="8yuuRg_ypmcoJ9JSNkmN-29">
          <mxGeometry relative="1" as="geometry">
            <mxPoint x="479" y="361" as="sourcePoint" />
            <mxPoint x="428.0987037037038" y="424" as="targetPoint" />
          </mxGeometry>
        </mxCell>
        <mxCell id="8yuuRg_ypmcoJ9JSNkmN-22" value="" style="group;fontFamily=Manrope;fontSource=https%3A%2F%2Ffonts.googleapis.com%2Fcss%3Ffamily%3DManrope;" vertex="1" connectable="0" parent="1">
          <mxGeometry x="366.5" y="272" width="30" height="30" as="geometry" />
        </mxCell>
        <mxCell id="8yuuRg_ypmcoJ9JSNkmN-23" value="" style="whiteSpace=wrap;html=1;aspect=fixed;fillColor=#001135;strokeColor=none;connectable=1;allowArrows=1;fontFamily=Manrope;fontSource=https%3A%2F%2Ffonts.googleapis.com%2Fcss%3Ffamily%3DManrope;" vertex="1" parent="8yuuRg_ypmcoJ9JSNkmN-22">
          <mxGeometry width="30" height="30" as="geometry" />
        </mxCell>
        <mxCell id="8yuuRg_ypmcoJ9JSNkmN-24" value="" style="endArrow=open;html=1;edgeStyle=orthogonalEdgeStyle;rounded=0;endFill=0;startSize=6;endSize=2;strokeColor=#FFFFFF;fontFamily=Manrope;fontSource=https%3A%2F%2Ffonts.googleapis.com%2Fcss%3Ffamily%3DManrope;" edge="1" parent="8yuuRg_ypmcoJ9JSNkmN-22">
          <mxGeometry width="50" height="50" relative="1" as="geometry">
            <mxPoint x="3" y="12" as="sourcePoint" />
            <mxPoint x="11" y="3" as="targetPoint" />
            <Array as="points">
              <mxPoint x="11" y="12" />
            </Array>
          </mxGeometry>
        </mxCell>
        <mxCell id="8yuuRg_ypmcoJ9JSNkmN-25" value="" style="endArrow=open;html=1;edgeStyle=orthogonalEdgeStyle;rounded=0;endFill=0;startSize=6;endSize=2;strokeColor=#FFFFFF;fontFamily=Manrope;fontSource=https%3A%2F%2Ffonts.googleapis.com%2Fcss%3Ffamily%3DManrope;" edge="1" parent="8yuuRg_ypmcoJ9JSNkmN-22">
          <mxGeometry width="50" height="50" relative="1" as="geometry">
            <mxPoint x="11" y="27" as="sourcePoint" />
            <mxPoint x="3" y="19" as="targetPoint" />
            <Array as="points">
              <mxPoint x="11" y="19" />
            </Array>
          </mxGeometry>
        </mxCell>
        <mxCell id="8yuuRg_ypmcoJ9JSNkmN-26" value="" style="endArrow=open;html=1;edgeStyle=orthogonalEdgeStyle;rounded=0;endFill=0;startSize=6;endSize=2;strokeColor=#FFFFFF;fontFamily=Manrope;fontSource=https%3A%2F%2Ffonts.googleapis.com%2Fcss%3Ffamily%3DManrope;" edge="1" parent="8yuuRg_ypmcoJ9JSNkmN-22">
          <mxGeometry width="50" height="50" relative="1" as="geometry">
            <mxPoint x="18" y="3" as="sourcePoint" />
            <mxPoint x="27" y="12" as="targetPoint" />
            <Array as="points">
              <mxPoint x="18" y="12" />
            </Array>
          </mxGeometry>
        </mxCell>
        <mxCell id="8yuuRg_ypmcoJ9JSNkmN-27" value="" style="endArrow=open;html=1;edgeStyle=orthogonalEdgeStyle;rounded=0;endFill=0;startSize=6;endSize=2;strokeColor=#FFFFFF;fontFamily=Manrope;fontSource=https%3A%2F%2Ffonts.googleapis.com%2Fcss%3Ffamily%3DManrope;" edge="1" parent="8yuuRg_ypmcoJ9JSNkmN-22">
          <mxGeometry width="50" height="50" relative="1" as="geometry">
            <mxPoint x="27" y="19" as="sourcePoint" />
            <mxPoint x="18" y="27" as="targetPoint" />
            <Array as="points">
              <mxPoint x="18" y="19" />
            </Array>
          </mxGeometry>
        </mxCell>
        <mxCell id="8yuuRg_ypmcoJ9JSNkmN-28" value="" style="shape=image;editableCssRules=\.st[02];verticalLabelPosition=bottom;labelBackgroundColor=#ffffff;verticalAlign=top;aspect=fixed;imageAspect=0;image=data:image/svg+xml,PHN2ZyB4bWxucz0iaHR0cDovL3d3dy53My5vcmcvMjAwMC9zdmciIHhtbG5zOnhsaW5rPSJodHRwOi8vd3d3LnczLm9yZy8xOTk5L3hsaW5rIiB2ZXJzaW9uPSIxLjEiIGlkPSJMYXllcl8xIiB4PSIwcHgiIHk9IjBweCIgd2lkdGg9IjE0MS42OTk5OTY5NDgyNDIyIiBoZWlnaHQ9IjE0MS42OTk5OTY5NDgyNDIyIiB2aWV3Qm94PSIwIDAgMTQxLjY5OTk5Njk0ODI0MjIgMTQxLjY5OTk5Njk0ODI0MjIiIHN0eWxlPSJlbmFibGUtYmFja2dyb3VuZDpuZXcgMCAwIDE0MS43IDE0MS43OyIgeG1sOnNwYWNlPSJwcmVzZXJ2ZSI+JiN4YTs8c3R5bGUgdHlwZT0idGV4dC9jc3MiPiYjeGE7CS5zdDB7ZmlsbDojMDAxMTM1O30mI3hhOwkuc3Qxe2ZpbGw6I0ZGRkZGRjt9JiN4YTsJLnN0MntmaWxsOm5vbmU7c3Ryb2tlOiNGRkZGRkY7c3Ryb2tlLXdpZHRoOjQ7c3Ryb2tlLW1pdGVybGltaXQ6MTA7fSYjeGE7CS5zdDN7ZmlsbDpub25lO3N0cm9rZTojRkZGRkZGO3N0cm9rZS13aWR0aDo0O3N0cm9rZS1saW5lam9pbjpyb3VuZDt9JiN4YTsJLnN0NHtmaWxsOiNGRkZGRkY7c3Ryb2tlOiNGRkZGRkY7c3Ryb2tlLW1pdGVybGltaXQ6MTA7fSYjeGE7CS5zdDV7ZmlsbDpub25lO30mI3hhOwkuc3Q2e2ZpbGw6I0ZGRkZGRjtzdHJva2U6I0ZGRkZGRjtzdHJva2Utd2lkdGg6MS42O3N0cm9rZS1taXRlcmxpbWl0OjEwO30mI3hhOwkuc3Q3e2ZpbGw6bm9uZTtzdHJva2U6I0ZGRkZGRjtzdHJva2Utd2lkdGg6NDt9JiN4YTsJLnN0OHtmaWxsOiMwMDExMzU7c3Ryb2tlOiNGRkZGRkY7c3Ryb2tlLXdpZHRoOjQ7c3Ryb2tlLW1pdGVybGltaXQ6MTA7fSYjeGE7CS5zdDl7ZmlsbDpub25lO3N0cm9rZTojRkZGRkZGO3N0cm9rZS13aWR0aDo0LjAwMDI7c3Ryb2tlLW1pdGVybGltaXQ6MTA7fSYjeGE7CS5zdDEwe2ZpbGw6bm9uZTtzdHJva2U6I0ZGRkZGRjtzdHJva2Utd2lkdGg6MC4zO3N0cm9rZS1taXRlcmxpbWl0OjEwO30mI3hhOwkuc3QxMXtmaWxsOm5vbmU7c3Ryb2tlOiNGRkZGRkY7c3Ryb2tlLXdpZHRoOjMuOTk5NTtzdHJva2UtbWl0ZXJsaW1pdDoxMDt9JiN4YTsJLnN0MTJ7ZmlsbDpub25lO3N0cm9rZTojRkZGRkZGO3N0cm9rZS13aWR0aDozLjk5OTY7c3Ryb2tlLW1pdGVybGltaXQ6MTA7fSYjeGE7CS5zdDEze2ZpbGw6bm9uZTtzdHJva2U6I0ZGRkZGRjtzdHJva2Utd2lkdGg6MztzdHJva2UtbWl0ZXJsaW1pdDoxMDt9JiN4YTsJLnN0MTR7ZmlsbDpub25lO3N0cm9rZTojRkZGRkZGO3N0cm9rZS13aWR0aDo0O3N0cm9rZS1saW5lam9pbjpyb3VuZDtzdHJva2UtbWl0ZXJsaW1pdDoxMDt9JiN4YTsJLnN0MTV7ZmlsbDpub25lO3N0cm9rZTojRkZGRkZGO3N0cm9rZS13aWR0aDo0O3N0cm9rZS1saW5lY2FwOnJvdW5kO3N0cm9rZS1saW5lam9pbjpyb3VuZDtzdHJva2UtbWl0ZXJsaW1pdDoxMDt9JiN4YTsJLnN0MTZ7ZmlsbDojMDAxODQ1O3N0cm9rZTojRkZGRkZGO3N0cm9rZS13aWR0aDo0LjM1NjY7c3Ryb2tlLWxpbmVjYXA6cm91bmQ7c3Ryb2tlLWxpbmVqb2luOnJvdW5kO3N0cm9rZS1taXRlcmxpbWl0OjEwO30mI3hhOwkuc3QxN3tmaWxsOm5vbmU7c3Ryb2tlOiNGRkZGRkY7c3Ryb2tlLXdpZHRoOjQ7c3Ryb2tlLWxpbmVjYXA6cm91bmQ7fSYjeGE7CS5zdDE4e2ZpbGw6IzAwMTEzNTtzdHJva2U6I0ZGRkZGRjtzdHJva2Utd2lkdGg6NDtzdHJva2UtbGluZWNhcDpyb3VuZDtzdHJva2UtbGluZWpvaW46cm91bmQ7fSYjeGE7CS5zdDE5e2ZpbGw6I0ZGRkZGRjtzdHJva2U6I0ZGRkZGRjtzdHJva2Utd2lkdGg6MC41O30mI3hhOwkuc3QyMHtmaWxsOm5vbmU7c3Ryb2tlOiNGRkZGRkY7c3Ryb2tlLXdpZHRoOjQ7c3Ryb2tlLWxpbmVjYXA6cm91bmQ7c3Ryb2tlLW1pdGVybGltaXQ6MTA7fSYjeGE7CS5zdDIxe2ZpbGw6I0ZGRkZGRjtzdHJva2U6I0ZGRkZGRjtzdHJva2Utd2lkdGg6NDtzdHJva2UtbWl0ZXJsaW1pdDoxMDt9JiN4YTsJLnN0MjJ7ZmlsbDojMDAxMTM1O3N0cm9rZTojRkZGRkZGO3N0cm9rZS13aWR0aDo0O3N0cm9rZS1saW5lY2FwOnJvdW5kO3N0cm9rZS1taXRlcmxpbWl0OjEwO30mI3hhOwkuc3QyM3tmaWxsOm5vbmU7c3Ryb2tlOiNGRkZGRkY7c3Ryb2tlLXdpZHRoOjQ7c3Ryb2tlLWxpbmVjYXA6cm91bmQ7c3Ryb2tlLWxpbmVqb2luOnJvdW5kO30mI3hhOwkuc3QyNHtmaWxsOm5vbmU7c3Ryb2tlOiNGRkZGRkY7c3Ryb2tlLXdpZHRoOjQuMDAwMTt9JiN4YTsJLnN0MjV7ZmlsbDpub25lO3N0cm9rZTojRkZGRkZGO3N0cm9rZS13aWR0aDo0LjAwMDE7c3Ryb2tlLWxpbmVjYXA6cm91bmQ7fSYjeGE7CS5zdDI2e2ZpbGw6IzAwMTEzNTtzdHJva2U6I0ZGRkZGRjtzdHJva2Utd2lkdGg6NDt9JiN4YTsJLnN0Mjd7ZmlsbDpub25lO3N0cm9rZTojRkZGRkZGO3N0cm9rZS13aWR0aDo0O3N0cm9rZS1taXRlcmxpbWl0OjEwO3N0cm9rZS1kYXNoYXJyYXk6Ny45NjcsMy45ODM1O30mI3hhOwkuc3QyOHtmaWxsOm5vbmU7c3Ryb2tlOiNGRkZGRkY7c3Ryb2tlLXdpZHRoOjQ7c3Ryb2tlLW1pdGVybGltaXQ6MTA7c3Ryb2tlLWRhc2hhcnJheTo2LjU2MTQsMi4xODcxO30mI3hhOwkuc3QyOXtmaWxsOm5vbmU7c3Ryb2tlOiNGRkZGRkY7c3Ryb2tlLXdpZHRoOjQ7c3Ryb2tlLW1pdGVybGltaXQ6MTA7c3Ryb2tlLWRhc2hhcnJheToxNC4zOTA2LDQuNzk2OTt9JiN4YTsJLnN0MzB7ZmlsbDpub25lO3N0cm9rZTojRkZGRkZGO3N0cm9rZS13aWR0aDo0O3N0cm9rZS1taXRlcmxpbWl0OjEwO3N0cm9rZS1kYXNoYXJyYXk6OC44ODM5LDIuOTYxMzt9JiN4YTsJLnN0MzF7ZmlsbDpub25lO3N0cm9rZTojRkZGRkZGO3N0cm9rZS13aWR0aDo0O3N0cm9rZS1taXRlcmxpbWl0OjEwO3N0cm9rZS1kYXNoYXJyYXk6NC4zNzQzO30mI3hhOwkuc3QzMntmaWxsOm5vbmU7c3Ryb2tlOiNGRkZGRkY7c3Ryb2tlLXdpZHRoOjQ7c3Ryb2tlLW1pdGVybGltaXQ6MTA7c3Ryb2tlLWRhc2hhcnJheTo4LjIyNTgsMi43NDE5O30mI3hhOwkuc3QzM3tmaWxsOiMwMDExMzU7c3Ryb2tlOiNGRkZGRkY7c3Ryb2tlLXdpZHRoOjQuMDI1NTtzdHJva2UtbWl0ZXJsaW1pdDoxMDt9JiN4YTs8L3N0eWxlPiYjeGE7PHJlY3QgY2xhc3M9InN0MCIgd2lkdGg9IjE0MS43IiBoZWlnaHQ9IjE0MS43Ii8+JiN4YTs8cGF0aCBjbGFzcz0ic3QxIiBkPSJNNTcuNiwxMTYuMWgyNi41VjI1LjZINTcuNlYxMTYuMXogTTg4LjEsMTIwLjFINTMuNlYyMS42aDM0LjVWMTIwLjF6Ii8+JiN4YTs8cmVjdCB4PSI1NS42IiB5PSIzMy40IiBjbGFzcz0ic3QxIiB3aWR0aD0iMzAuNSIgaGVpZ2h0PSI0Ii8+JiN4YTs8cmVjdCB4PSI1NS42IiB5PSI4MC43IiBjbGFzcz0ic3QxIiB3aWR0aD0iMzAuNSIgaGVpZ2h0PSI0Ii8+JiN4YTs8cGF0aCBjbGFzcz0ic3QxIiBkPSJNNjQuNCw3MC45YzAtMS42LDEuMy0yLjgsMi44LTIuOGMxLjYsMCwyLjgsMS4zLDIuOCwyLjhjMCwxLjYtMS4zLDIuOC0yLjgsMi44QzY1LjYsNzMuNyw2NC40LDcyLjQsNjQuNCw3MC45Ii8+JiN4YTs8L3N2Zz4=;" vertex="1" parent="1">
          <mxGeometry x="304" y="417.29" width="26" height="26" as="geometry" />
        </mxCell>
        <mxCell id="8yuuRg_ypmcoJ9JSNkmN-29" value="" style="shape=image;editableCssRules=\.st[02];verticalLabelPosition=bottom;labelBackgroundColor=#ffffff;verticalAlign=top;aspect=fixed;imageAspect=0;image=data:image/svg+xml,PHN2ZyB4bWxucz0iaHR0cDovL3d3dy53My5vcmcvMjAwMC9zdmciIHhtbG5zOnhsaW5rPSJodHRwOi8vd3d3LnczLm9yZy8xOTk5L3hsaW5rIiB2ZXJzaW9uPSIxLjEiIGlkPSJMYXllcl8xIiB4PSIwcHgiIHk9IjBweCIgd2lkdGg9IjE0MS42OTk5OTY5NDgyNDIyIiBoZWlnaHQ9IjE0MS42OTk5OTY5NDgyNDIyIiB2aWV3Qm94PSIwIDAgMTQxLjY5OTk5Njk0ODI0MjIgMTQxLjY5OTk5Njk0ODI0MjIiIHN0eWxlPSJlbmFibGUtYmFja2dyb3VuZDpuZXcgMCAwIDE0MS43IDE0MS43OyIgeG1sOnNwYWNlPSJwcmVzZXJ2ZSI+JiN4YTs8c3R5bGUgdHlwZT0idGV4dC9jc3MiPiYjeGE7CS5zdDB7ZmlsbDojMDAxMTM1O30mI3hhOwkuc3Qxe2ZpbGw6I0ZGRkZGRjt9JiN4YTsJLnN0MntmaWxsOm5vbmU7c3Ryb2tlOiNGRkZGRkY7c3Ryb2tlLXdpZHRoOjQ7c3Ryb2tlLW1pdGVybGltaXQ6MTA7fSYjeGE7CS5zdDN7ZmlsbDpub25lO3N0cm9rZTojRkZGRkZGO3N0cm9rZS13aWR0aDo0O3N0cm9rZS1saW5lam9pbjpyb3VuZDt9JiN4YTsJLnN0NHtmaWxsOiNGRkZGRkY7c3Ryb2tlOiNGRkZGRkY7c3Ryb2tlLW1pdGVybGltaXQ6MTA7fSYjeGE7CS5zdDV7ZmlsbDpub25lO30mI3hhOwkuc3Q2e2ZpbGw6I0ZGRkZGRjtzdHJva2U6I0ZGRkZGRjtzdHJva2Utd2lkdGg6MS42O3N0cm9rZS1taXRlcmxpbWl0OjEwO30mI3hhOwkuc3Q3e2ZpbGw6bm9uZTtzdHJva2U6I0ZGRkZGRjtzdHJva2Utd2lkdGg6NDt9JiN4YTsJLnN0OHtmaWxsOiMwMDExMzU7c3Ryb2tlOiNGRkZGRkY7c3Ryb2tlLXdpZHRoOjQ7c3Ryb2tlLW1pdGVybGltaXQ6MTA7fSYjeGE7CS5zdDl7ZmlsbDpub25lO3N0cm9rZTojRkZGRkZGO3N0cm9rZS13aWR0aDo0LjAwMDI7c3Ryb2tlLW1pdGVybGltaXQ6MTA7fSYjeGE7CS5zdDEwe2ZpbGw6bm9uZTtzdHJva2U6I0ZGRkZGRjtzdHJva2Utd2lkdGg6MC4zO3N0cm9rZS1taXRlcmxpbWl0OjEwO30mI3hhOwkuc3QxMXtmaWxsOm5vbmU7c3Ryb2tlOiNGRkZGRkY7c3Ryb2tlLXdpZHRoOjMuOTk5NTtzdHJva2UtbWl0ZXJsaW1pdDoxMDt9JiN4YTsJLnN0MTJ7ZmlsbDpub25lO3N0cm9rZTojRkZGRkZGO3N0cm9rZS13aWR0aDozLjk5OTY7c3Ryb2tlLW1pdGVybGltaXQ6MTA7fSYjeGE7CS5zdDEze2ZpbGw6bm9uZTtzdHJva2U6I0ZGRkZGRjtzdHJva2Utd2lkdGg6MztzdHJva2UtbWl0ZXJsaW1pdDoxMDt9JiN4YTsJLnN0MTR7ZmlsbDpub25lO3N0cm9rZTojRkZGRkZGO3N0cm9rZS13aWR0aDo0O3N0cm9rZS1saW5lam9pbjpyb3VuZDtzdHJva2UtbWl0ZXJsaW1pdDoxMDt9JiN4YTsJLnN0MTV7ZmlsbDpub25lO3N0cm9rZTojRkZGRkZGO3N0cm9rZS13aWR0aDo0O3N0cm9rZS1saW5lY2FwOnJvdW5kO3N0cm9rZS1saW5lam9pbjpyb3VuZDtzdHJva2UtbWl0ZXJsaW1pdDoxMDt9JiN4YTsJLnN0MTZ7ZmlsbDojMDAxODQ1O3N0cm9rZTojRkZGRkZGO3N0cm9rZS13aWR0aDo0LjM1NjY7c3Ryb2tlLWxpbmVjYXA6cm91bmQ7c3Ryb2tlLWxpbmVqb2luOnJvdW5kO3N0cm9rZS1taXRlcmxpbWl0OjEwO30mI3hhOwkuc3QxN3tmaWxsOm5vbmU7c3Ryb2tlOiNGRkZGRkY7c3Ryb2tlLXdpZHRoOjQ7c3Ryb2tlLWxpbmVjYXA6cm91bmQ7fSYjeGE7CS5zdDE4e2ZpbGw6IzAwMTEzNTtzdHJva2U6I0ZGRkZGRjtzdHJva2Utd2lkdGg6NDtzdHJva2UtbGluZWNhcDpyb3VuZDtzdHJva2UtbGluZWpvaW46cm91bmQ7fSYjeGE7CS5zdDE5e2ZpbGw6I0ZGRkZGRjtzdHJva2U6I0ZGRkZGRjtzdHJva2Utd2lkdGg6MC41O30mI3hhOwkuc3QyMHtmaWxsOm5vbmU7c3Ryb2tlOiNGRkZGRkY7c3Ryb2tlLXdpZHRoOjQ7c3Ryb2tlLWxpbmVjYXA6cm91bmQ7c3Ryb2tlLW1pdGVybGltaXQ6MTA7fSYjeGE7CS5zdDIxe2ZpbGw6I0ZGRkZGRjtzdHJva2U6I0ZGRkZGRjtzdHJva2Utd2lkdGg6NDtzdHJva2UtbWl0ZXJsaW1pdDoxMDt9JiN4YTsJLnN0MjJ7ZmlsbDojMDAxMTM1O3N0cm9rZTojRkZGRkZGO3N0cm9rZS13aWR0aDo0O3N0cm9rZS1saW5lY2FwOnJvdW5kO3N0cm9rZS1taXRlcmxpbWl0OjEwO30mI3hhOwkuc3QyM3tmaWxsOm5vbmU7c3Ryb2tlOiNGRkZGRkY7c3Ryb2tlLXdpZHRoOjQ7c3Ryb2tlLWxpbmVjYXA6cm91bmQ7c3Ryb2tlLWxpbmVqb2luOnJvdW5kO30mI3hhOwkuc3QyNHtmaWxsOm5vbmU7c3Ryb2tlOiNGRkZGRkY7c3Ryb2tlLXdpZHRoOjQuMDAwMTt9JiN4YTsJLnN0MjV7ZmlsbDpub25lO3N0cm9rZTojRkZGRkZGO3N0cm9rZS13aWR0aDo0LjAwMDE7c3Ryb2tlLWxpbmVjYXA6cm91bmQ7fSYjeGE7CS5zdDI2e2ZpbGw6IzAwMTEzNTtzdHJva2U6I0ZGRkZGRjtzdHJva2Utd2lkdGg6NDt9JiN4YTsJLnN0Mjd7ZmlsbDpub25lO3N0cm9rZTojRkZGRkZGO3N0cm9rZS13aWR0aDo0O3N0cm9rZS1taXRlcmxpbWl0OjEwO3N0cm9rZS1kYXNoYXJyYXk6Ny45NjcsMy45ODM1O30mI3hhOwkuc3QyOHtmaWxsOm5vbmU7c3Ryb2tlOiNGRkZGRkY7c3Ryb2tlLXdpZHRoOjQ7c3Ryb2tlLW1pdGVybGltaXQ6MTA7c3Ryb2tlLWRhc2hhcnJheTo2LjU2MTQsMi4xODcxO30mI3hhOwkuc3QyOXtmaWxsOm5vbmU7c3Ryb2tlOiNGRkZGRkY7c3Ryb2tlLXdpZHRoOjQ7c3Ryb2tlLW1pdGVybGltaXQ6MTA7c3Ryb2tlLWRhc2hhcnJheToxNC4zOTA2LDQuNzk2OTt9JiN4YTsJLnN0MzB7ZmlsbDpub25lO3N0cm9rZTojRkZGRkZGO3N0cm9rZS13aWR0aDo0O3N0cm9rZS1taXRlcmxpbWl0OjEwO3N0cm9rZS1kYXNoYXJyYXk6OC44ODM5LDIuOTYxMzt9JiN4YTsJLnN0MzF7ZmlsbDpub25lO3N0cm9rZTojRkZGRkZGO3N0cm9rZS13aWR0aDo0O3N0cm9rZS1taXRlcmxpbWl0OjEwO3N0cm9rZS1kYXNoYXJyYXk6NC4zNzQzO30mI3hhOwkuc3QzMntmaWxsOm5vbmU7c3Ryb2tlOiNGRkZGRkY7c3Ryb2tlLXdpZHRoOjQ7c3Ryb2tlLW1pdGVybGltaXQ6MTA7c3Ryb2tlLWRhc2hhcnJheTo4LjIyNTgsMi43NDE5O30mI3hhOwkuc3QzM3tmaWxsOiMwMDExMzU7c3Ryb2tlOiNGRkZGRkY7c3Ryb2tlLXdpZHRoOjQuMDI1NTtzdHJva2UtbWl0ZXJsaW1pdDoxMDt9JiN4YTs8L3N0eWxlPiYjeGE7PHJlY3QgY2xhc3M9InN0MCIgd2lkdGg9IjE0MS43IiBoZWlnaHQ9IjE0MS43Ii8+JiN4YTs8cGF0aCBjbGFzcz0ic3QxIiBkPSJNNTcuNiwxMTYuMWgyNi41VjI1LjZINTcuNlYxMTYuMXogTTg4LjEsMTIwLjFINTMuNlYyMS42aDM0LjVWMTIwLjF6Ii8+JiN4YTs8cmVjdCB4PSI1NS42IiB5PSIzMy40IiBjbGFzcz0ic3QxIiB3aWR0aD0iMzAuNSIgaGVpZ2h0PSI0Ii8+JiN4YTs8cmVjdCB4PSI1NS42IiB5PSI4MC43IiBjbGFzcz0ic3QxIiB3aWR0aD0iMzAuNSIgaGVpZ2h0PSI0Ii8+JiN4YTs8cGF0aCBjbGFzcz0ic3QxIiBkPSJNNjQuNCw3MC45YzAtMS42LDEuMy0yLjgsMi44LTIuOGMxLjYsMCwyLjgsMS4zLDIuOCwyLjhjMCwxLjYtMS4zLDIuOC0yLjgsMi44QzY1LjYsNzMuNyw2NC40LDcyLjQsNjQuNCw3MC45Ii8+JiN4YTs8L3N2Zz4=;" vertex="1" parent="1">
          <mxGeometry x="435" y="417.29" width="26" height="26" as="geometry" />
        </mxCell>
        <mxCell id="8yuuRg_ypmcoJ9JSNkmN-30" value="" style="group;fontFamily=Manrope;fontSource=https%3A%2F%2Ffonts.googleapis.com%2Fcss%3Ffamily%3DManrope;" vertex="1" connectable="0" parent="1">
          <mxGeometry x="324" y="357.21" width="30" height="30" as="geometry" />
        </mxCell>
        <mxCell id="8yuuRg_ypmcoJ9JSNkmN-31" value="" style="whiteSpace=wrap;html=1;aspect=fixed;fillColor=#001135;strokeColor=none;connectable=1;allowArrows=1;fontFamily=Manrope;fontSource=https%3A%2F%2Ffonts.googleapis.com%2Fcss%3Ffamily%3DManrope;" vertex="1" parent="8yuuRg_ypmcoJ9JSNkmN-30">
          <mxGeometry width="30" height="30" as="geometry" />
        </mxCell>
        <mxCell id="8yuuRg_ypmcoJ9JSNkmN-32" value="" style="endArrow=open;html=1;edgeStyle=orthogonalEdgeStyle;rounded=0;endFill=0;startSize=6;endSize=2;strokeColor=#FFFFFF;fontFamily=Manrope;fontSource=https%3A%2F%2Ffonts.googleapis.com%2Fcss%3Ffamily%3DManrope;" edge="1" parent="8yuuRg_ypmcoJ9JSNkmN-30">
          <mxGeometry width="50" height="50" relative="1" as="geometry">
            <mxPoint x="3" y="12" as="sourcePoint" />
            <mxPoint x="11" y="3" as="targetPoint" />
            <Array as="points">
              <mxPoint x="11" y="12" />
            </Array>
          </mxGeometry>
        </mxCell>
        <mxCell id="8yuuRg_ypmcoJ9JSNkmN-33" value="" style="endArrow=open;html=1;edgeStyle=orthogonalEdgeStyle;rounded=0;endFill=0;startSize=6;endSize=2;strokeColor=#FFFFFF;fontFamily=Manrope;fontSource=https%3A%2F%2Ffonts.googleapis.com%2Fcss%3Ffamily%3DManrope;" edge="1" parent="8yuuRg_ypmcoJ9JSNkmN-30">
          <mxGeometry width="50" height="50" relative="1" as="geometry">
            <mxPoint x="11" y="27" as="sourcePoint" />
            <mxPoint x="3" y="19" as="targetPoint" />
            <Array as="points">
              <mxPoint x="11" y="19" />
            </Array>
          </mxGeometry>
        </mxCell>
        <mxCell id="8yuuRg_ypmcoJ9JSNkmN-34" value="" style="endArrow=open;html=1;edgeStyle=orthogonalEdgeStyle;rounded=0;endFill=0;startSize=6;endSize=2;strokeColor=#FFFFFF;fontFamily=Manrope;fontSource=https%3A%2F%2Ffonts.googleapis.com%2Fcss%3Ffamily%3DManrope;" edge="1" parent="8yuuRg_ypmcoJ9JSNkmN-30">
          <mxGeometry width="50" height="50" relative="1" as="geometry">
            <mxPoint x="18" y="3" as="sourcePoint" />
            <mxPoint x="27" y="12" as="targetPoint" />
            <Array as="points">
              <mxPoint x="18" y="12" />
            </Array>
          </mxGeometry>
        </mxCell>
        <mxCell id="8yuuRg_ypmcoJ9JSNkmN-35" value="" style="endArrow=open;html=1;edgeStyle=orthogonalEdgeStyle;rounded=0;endFill=0;startSize=6;endSize=2;strokeColor=#FFFFFF;fontFamily=Manrope;fontSource=https%3A%2F%2Ffonts.googleapis.com%2Fcss%3Ffamily%3DManrope;" edge="1" parent="8yuuRg_ypmcoJ9JSNkmN-30">
          <mxGeometry width="50" height="50" relative="1" as="geometry">
            <mxPoint x="27" y="19" as="sourcePoint" />
            <mxPoint x="18" y="27" as="targetPoint" />
            <Array as="points">
              <mxPoint x="18" y="19" />
            </Array>
          </mxGeometry>
        </mxCell>
        <mxCell id="8yuuRg_ypmcoJ9JSNkmN-36" value="&lt;font&gt;leaf2&lt;br&gt;&lt;/font&gt;" style="text;html=1;align=center;verticalAlign=middle;resizable=0;points=[];autosize=1;fontSize=10;fontFamily=Manrope;fontStyle=0;fontColor=#FFFFFF;" vertex="1" parent="1">
          <mxGeometry x="346" y="343" width="34" height="17" as="geometry" />
        </mxCell>
        <mxCell id="8yuuRg_ypmcoJ9JSNkmN-37" style="rounded=0;orthogonalLoop=1;jettySize=auto;html=1;exitX=0.5;exitY=0;exitDx=0;exitDy=0;startSize=6;endArrow=none;endFill=0;endSize=2;fontFamily=Manrope;fontSize=8;strokeColor=#98A2AE;fontSource=https%3A%2F%2Ffonts.googleapis.com%2Fcss%3Ffamily%3DManrope;entryX=0.5;entryY=1;entryDx=0;entryDy=0;" edge="1" parent="1" source="8yuuRg_ypmcoJ9JSNkmN-28" target="8yuuRg_ypmcoJ9JSNkmN-31">
          <mxGeometry relative="1" as="geometry">
            <mxPoint x="318" y="418.28999999999996" as="sourcePoint" />
            <mxPoint x="318" y="389" as="targetPoint" />
          </mxGeometry>
        </mxCell>
        <mxCell id="8yuuRg_ypmcoJ9JSNkmN-38" value="" style="group;fontFamily=Manrope;fontSource=https%3A%2F%2Ffonts.googleapis.com%2Fcss%3Ffamily%3DManrope;" vertex="1" connectable="0" parent="1">
          <mxGeometry x="452" y="357.21" width="30" height="30" as="geometry" />
        </mxCell>
        <mxCell id="8yuuRg_ypmcoJ9JSNkmN-39" value="" style="whiteSpace=wrap;html=1;aspect=fixed;fillColor=#001135;strokeColor=none;connectable=1;allowArrows=1;fontFamily=Manrope;fontSource=https%3A%2F%2Ffonts.googleapis.com%2Fcss%3Ffamily%3DManrope;" vertex="1" parent="8yuuRg_ypmcoJ9JSNkmN-38">
          <mxGeometry width="30" height="30" as="geometry" />
        </mxCell>
        <mxCell id="8yuuRg_ypmcoJ9JSNkmN-40" value="" style="endArrow=open;html=1;edgeStyle=orthogonalEdgeStyle;rounded=0;endFill=0;startSize=6;endSize=2;strokeColor=#FFFFFF;fontFamily=Manrope;fontSource=https%3A%2F%2Ffonts.googleapis.com%2Fcss%3Ffamily%3DManrope;" edge="1" parent="8yuuRg_ypmcoJ9JSNkmN-38">
          <mxGeometry width="50" height="50" relative="1" as="geometry">
            <mxPoint x="3" y="12" as="sourcePoint" />
            <mxPoint x="11" y="3" as="targetPoint" />
            <Array as="points">
              <mxPoint x="11" y="12" />
            </Array>
          </mxGeometry>
        </mxCell>
        <mxCell id="8yuuRg_ypmcoJ9JSNkmN-41" value="" style="endArrow=open;html=1;edgeStyle=orthogonalEdgeStyle;rounded=0;endFill=0;startSize=6;endSize=2;strokeColor=#FFFFFF;fontFamily=Manrope;fontSource=https%3A%2F%2Ffonts.googleapis.com%2Fcss%3Ffamily%3DManrope;" edge="1" parent="8yuuRg_ypmcoJ9JSNkmN-38">
          <mxGeometry width="50" height="50" relative="1" as="geometry">
            <mxPoint x="11" y="27" as="sourcePoint" />
            <mxPoint x="3" y="19" as="targetPoint" />
            <Array as="points">
              <mxPoint x="11" y="19" />
            </Array>
          </mxGeometry>
        </mxCell>
        <mxCell id="8yuuRg_ypmcoJ9JSNkmN-42" value="" style="endArrow=open;html=1;edgeStyle=orthogonalEdgeStyle;rounded=0;endFill=0;startSize=6;endSize=2;strokeColor=#FFFFFF;fontFamily=Manrope;fontSource=https%3A%2F%2Ffonts.googleapis.com%2Fcss%3Ffamily%3DManrope;" edge="1" parent="8yuuRg_ypmcoJ9JSNkmN-38">
          <mxGeometry width="50" height="50" relative="1" as="geometry">
            <mxPoint x="18" y="3" as="sourcePoint" />
            <mxPoint x="27" y="12" as="targetPoint" />
            <Array as="points">
              <mxPoint x="18" y="12" />
            </Array>
          </mxGeometry>
        </mxCell>
        <mxCell id="8yuuRg_ypmcoJ9JSNkmN-43" value="" style="endArrow=open;html=1;edgeStyle=orthogonalEdgeStyle;rounded=0;endFill=0;startSize=6;endSize=2;strokeColor=#FFFFFF;fontFamily=Manrope;fontSource=https%3A%2F%2Ffonts.googleapis.com%2Fcss%3Ffamily%3DManrope;" edge="1" parent="8yuuRg_ypmcoJ9JSNkmN-38">
          <mxGeometry width="50" height="50" relative="1" as="geometry">
            <mxPoint x="27" y="19" as="sourcePoint" />
            <mxPoint x="18" y="27" as="targetPoint" />
            <Array as="points">
              <mxPoint x="18" y="19" />
            </Array>
          </mxGeometry>
        </mxCell>
        <mxCell id="8yuuRg_ypmcoJ9JSNkmN-44" value="&lt;font&gt;leaf4&lt;br&gt;&lt;/font&gt;" style="text;html=1;align=center;verticalAlign=middle;resizable=0;points=[];autosize=1;fontSize=10;fontFamily=Manrope;fontStyle=0;fontColor=#FFFFFF;" vertex="1" parent="1">
          <mxGeometry x="473" y="342" width="34" height="17" as="geometry" />
        </mxCell>
        <mxCell id="8yuuRg_ypmcoJ9JSNkmN-45" style="rounded=0;orthogonalLoop=1;jettySize=auto;html=1;startSize=6;endArrow=none;endFill=0;endSize=2;fontFamily=Manrope;fontSize=8;strokeColor=#98A2AE;fontSource=https%3A%2F%2Ffonts.googleapis.com%2Fcss%3Ffamily%3DManrope;entryX=0.5;entryY=0;entryDx=0;entryDy=0;exitX=0.5;exitY=1;exitDx=0;exitDy=0;" edge="1" parent="1" source="8yuuRg_ypmcoJ9JSNkmN-39" target="8yuuRg_ypmcoJ9JSNkmN-29">
          <mxGeometry relative="1" as="geometry">
            <mxPoint x="429" y="389" as="sourcePoint" />
            <mxPoint x="429" y="418.28999999999996" as="targetPoint" />
          </mxGeometry>
        </mxCell>
        <mxCell id="8yuuRg_ypmcoJ9JSNkmN-46" style="rounded=0;orthogonalLoop=1;jettySize=auto;html=1;exitX=0.5;exitY=0;exitDx=0;exitDy=0;entryX=0.5;entryY=1;entryDx=0;entryDy=0;startSize=6;endArrow=none;endFill=0;endSize=2;fontFamily=Manrope;fontSize=8;strokeColor=#98A2AE;fontSource=https%3A%2F%2Ffonts.googleapis.com%2Fcss%3Ffamily%3DManrope;" edge="1" parent="1" source="8yuuRg_ypmcoJ9JSNkmN-39" target="8yuuRg_ypmcoJ9JSNkmN-23">
          <mxGeometry relative="1" as="geometry">
            <mxPoint x="429" y="359" as="sourcePoint" />
            <mxPoint x="374" y="303" as="targetPoint" />
          </mxGeometry>
        </mxCell>
        <mxCell id="8yuuRg_ypmcoJ9JSNkmN-47" style="rounded=0;orthogonalLoop=1;jettySize=auto;html=1;exitX=0.5;exitY=0;exitDx=0;exitDy=0;startSize=6;endArrow=none;endFill=0;endSize=2;fontFamily=Manrope;fontSize=8;strokeColor=#98A2AE;fontSource=https%3A%2F%2Ffonts.googleapis.com%2Fcss%3Ffamily%3DManrope;entryX=0.5;entryY=1;entryDx=0;entryDy=0;" edge="1" parent="1" source="8yuuRg_ypmcoJ9JSNkmN-31" target="8yuuRg_ypmcoJ9JSNkmN-23">
          <mxGeometry relative="1" as="geometry">
            <mxPoint x="297" y="358.21000000000004" as="sourcePoint" />
            <mxPoint x="374" y="303" as="targetPoint" />
          </mxGeometry>
        </mxCell>
      </root>
    </mxGraphModel>
  </diagram>
  <diagram name="Copy of Page-1" id="BHHnnIyJlF0Dx30aBg7r">
    <mxGraphModel dx="861" dy="484" grid="1" gridSize="1" guides="1" tooltips="1" connect="1" arrows="1" fold="1" page="1" pageScale="1" pageWidth="827" pageHeight="1169" background="#4D5766" math="0" shadow="0">
      <root>
        <mxCell id="6mQIUUrpQCFZ34d5UZcA-0" />
        <mxCell id="6mQIUUrpQCFZ34d5UZcA-1" parent="6mQIUUrpQCFZ34d5UZcA-0" />
        <mxCell id="dvbZ92iPOWDQkblW2T_Y-0" value="&lt;font&gt;client1&lt;br&gt;&lt;font style=&quot;font-size: 8px&quot; color=&quot;#bec8d2&quot;&gt;de:ad:be:ef:00:01&lt;/font&gt;&lt;br&gt;&lt;/font&gt;" style="text;html=1;align=center;verticalAlign=middle;resizable=0;points=[];autosize=1;fontSize=10;fontFamily=Manrope;fontStyle=0;fontColor=#FFFFFF;" vertex="1" parent="6mQIUUrpQCFZ34d5UZcA-1">
          <mxGeometry x="280" y="440" width="77" height="30" as="geometry" />
        </mxCell>
        <mxCell id="dvbZ92iPOWDQkblW2T_Y-1" value="&lt;font&gt;client2&lt;br&gt;&lt;span style=&quot;color: rgb(190 , 200 , 210) ; font-size: 8px&quot;&gt;de:ad:be:ef:00:02&lt;/span&gt;&lt;br&gt;&lt;/font&gt;" style="text;html=1;align=center;verticalAlign=middle;resizable=0;points=[];autosize=1;fontSize=10;fontFamily=Manrope;fontStyle=0;fontColor=#FFFFFF;" vertex="1" parent="6mQIUUrpQCFZ34d5UZcA-1">
          <mxGeometry x="390" y="440" width="78" height="30" as="geometry" />
        </mxCell>
        <mxCell id="dvbZ92iPOWDQkblW2T_Y-2" value="" style="endArrow=none;html=1;shadow=0;strokeWidth=4;fillColor=#666666;fontFamily=nasa;fontSize=18;fontColor=#FFFFFF;strokeColor=#001135;" edge="1" parent="6mQIUUrpQCFZ34d5UZcA-1">
          <mxGeometry width="50" height="50" relative="1" as="geometry">
            <mxPoint x="290" y="386" as="sourcePoint" />
            <mxPoint x="442" y="386" as="targetPoint" />
          </mxGeometry>
        </mxCell>
        <mxCell id="dvbZ92iPOWDQkblW2T_Y-3" value="&lt;font style=&quot;font-size: 10px;&quot; color=&quot;#ffffff&quot;&gt;L2 domain&lt;/font&gt;" style="text;html=1;align=right;verticalAlign=middle;resizable=0;points=[];autosize=1;fontSize=10;fontFamily=Manrope;fontColor=#001135;" vertex="1" parent="6mQIUUrpQCFZ34d5UZcA-1">
          <mxGeometry x="228" y="374" width="58" height="18" as="geometry" />
        </mxCell>
        <mxCell id="dvbZ92iPOWDQkblW2T_Y-4" style="rounded=0;orthogonalLoop=1;jettySize=auto;html=1;exitX=0.5;exitY=0;exitDx=0;exitDy=0;startSize=2;endArrow=oval;endFill=1;endSize=2;fontFamily=Manrope;fontSize=8;strokeColor=#98A2AE;fontSource=https%3A%2F%2Ffonts.googleapis.com%2Fcss%3Ffamily%3DManrope;startArrow=oval;startFill=1;" edge="1" parent="6mQIUUrpQCFZ34d5UZcA-1" source="dvbZ92iPOWDQkblW2T_Y-6">
          <mxGeometry relative="1" as="geometry">
            <mxPoint x="317.0987037037037" y="424.0000000000001" as="sourcePoint" />
            <mxPoint x="317" y="386" as="targetPoint" />
          </mxGeometry>
        </mxCell>
        <mxCell id="dvbZ92iPOWDQkblW2T_Y-5" style="rounded=0;orthogonalLoop=1;jettySize=auto;html=1;startSize=2;endArrow=oval;endFill=1;endSize=2;fontFamily=Manrope;fontSize=8;strokeColor=#98A2AE;fontSource=https%3A%2F%2Ffonts.googleapis.com%2Fcss%3Ffamily%3DManrope;entryX=0.5;entryY=0;entryDx=0;entryDy=0;startArrow=oval;startFill=1;" edge="1" parent="6mQIUUrpQCFZ34d5UZcA-1" target="dvbZ92iPOWDQkblW2T_Y-7">
          <mxGeometry relative="1" as="geometry">
            <mxPoint x="428" y="386" as="sourcePoint" />
            <mxPoint x="428.0987037037037" y="424" as="targetPoint" />
          </mxGeometry>
        </mxCell>
        <mxCell id="dvbZ92iPOWDQkblW2T_Y-6" value="" style="shape=image;editableCssRules=\.st[02];verticalLabelPosition=bottom;labelBackgroundColor=#ffffff;verticalAlign=top;aspect=fixed;imageAspect=0;image=data:image/svg+xml,PHN2ZyB4bWxucz0iaHR0cDovL3d3dy53My5vcmcvMjAwMC9zdmciIHhtbG5zOnhsaW5rPSJodHRwOi8vd3d3LnczLm9yZy8xOTk5L3hsaW5rIiB2ZXJzaW9uPSIxLjEiIGlkPSJMYXllcl8xIiB4PSIwcHgiIHk9IjBweCIgd2lkdGg9IjE0MS42OTk5OTY5NDgyNDIyIiBoZWlnaHQ9IjE0MS42OTk5OTY5NDgyNDIyIiB2aWV3Qm94PSIwIDAgMTQxLjY5OTk5Njk0ODI0MjIgMTQxLjY5OTk5Njk0ODI0MjIiIHN0eWxlPSJlbmFibGUtYmFja2dyb3VuZDpuZXcgMCAwIDE0MS43IDE0MS43OyIgeG1sOnNwYWNlPSJwcmVzZXJ2ZSI+JiN4YTs8c3R5bGUgdHlwZT0idGV4dC9jc3MiPiYjeGE7CS5zdDB7ZmlsbDojMDAxMTM1O30mI3hhOwkuc3Qxe2ZpbGw6I0ZGRkZGRjt9JiN4YTsJLnN0MntmaWxsOm5vbmU7c3Ryb2tlOiNGRkZGRkY7c3Ryb2tlLXdpZHRoOjQ7c3Ryb2tlLW1pdGVybGltaXQ6MTA7fSYjeGE7CS5zdDN7ZmlsbDpub25lO3N0cm9rZTojRkZGRkZGO3N0cm9rZS13aWR0aDo0O3N0cm9rZS1saW5lam9pbjpyb3VuZDt9JiN4YTsJLnN0NHtmaWxsOiNGRkZGRkY7c3Ryb2tlOiNGRkZGRkY7c3Ryb2tlLW1pdGVybGltaXQ6MTA7fSYjeGE7CS5zdDV7ZmlsbDpub25lO30mI3hhOwkuc3Q2e2ZpbGw6I0ZGRkZGRjtzdHJva2U6I0ZGRkZGRjtzdHJva2Utd2lkdGg6MS42O3N0cm9rZS1taXRlcmxpbWl0OjEwO30mI3hhOwkuc3Q3e2ZpbGw6bm9uZTtzdHJva2U6I0ZGRkZGRjtzdHJva2Utd2lkdGg6NDt9JiN4YTsJLnN0OHtmaWxsOiMwMDExMzU7c3Ryb2tlOiNGRkZGRkY7c3Ryb2tlLXdpZHRoOjQ7c3Ryb2tlLW1pdGVybGltaXQ6MTA7fSYjeGE7CS5zdDl7ZmlsbDpub25lO3N0cm9rZTojRkZGRkZGO3N0cm9rZS13aWR0aDo0LjAwMDI7c3Ryb2tlLW1pdGVybGltaXQ6MTA7fSYjeGE7CS5zdDEwe2ZpbGw6bm9uZTtzdHJva2U6I0ZGRkZGRjtzdHJva2Utd2lkdGg6MC4zO3N0cm9rZS1taXRlcmxpbWl0OjEwO30mI3hhOwkuc3QxMXtmaWxsOm5vbmU7c3Ryb2tlOiNGRkZGRkY7c3Ryb2tlLXdpZHRoOjMuOTk5NTtzdHJva2UtbWl0ZXJsaW1pdDoxMDt9JiN4YTsJLnN0MTJ7ZmlsbDpub25lO3N0cm9rZTojRkZGRkZGO3N0cm9rZS13aWR0aDozLjk5OTY7c3Ryb2tlLW1pdGVybGltaXQ6MTA7fSYjeGE7CS5zdDEze2ZpbGw6bm9uZTtzdHJva2U6I0ZGRkZGRjtzdHJva2Utd2lkdGg6MztzdHJva2UtbWl0ZXJsaW1pdDoxMDt9JiN4YTsJLnN0MTR7ZmlsbDpub25lO3N0cm9rZTojRkZGRkZGO3N0cm9rZS13aWR0aDo0O3N0cm9rZS1saW5lam9pbjpyb3VuZDtzdHJva2UtbWl0ZXJsaW1pdDoxMDt9JiN4YTsJLnN0MTV7ZmlsbDpub25lO3N0cm9rZTojRkZGRkZGO3N0cm9rZS13aWR0aDo0O3N0cm9rZS1saW5lY2FwOnJvdW5kO3N0cm9rZS1saW5lam9pbjpyb3VuZDtzdHJva2UtbWl0ZXJsaW1pdDoxMDt9JiN4YTsJLnN0MTZ7ZmlsbDojMDAxODQ1O3N0cm9rZTojRkZGRkZGO3N0cm9rZS13aWR0aDo0LjM1NjY7c3Ryb2tlLWxpbmVjYXA6cm91bmQ7c3Ryb2tlLWxpbmVqb2luOnJvdW5kO3N0cm9rZS1taXRlcmxpbWl0OjEwO30mI3hhOwkuc3QxN3tmaWxsOm5vbmU7c3Ryb2tlOiNGRkZGRkY7c3Ryb2tlLXdpZHRoOjQ7c3Ryb2tlLWxpbmVjYXA6cm91bmQ7fSYjeGE7CS5zdDE4e2ZpbGw6IzAwMTEzNTtzdHJva2U6I0ZGRkZGRjtzdHJva2Utd2lkdGg6NDtzdHJva2UtbGluZWNhcDpyb3VuZDtzdHJva2UtbGluZWpvaW46cm91bmQ7fSYjeGE7CS5zdDE5e2ZpbGw6I0ZGRkZGRjtzdHJva2U6I0ZGRkZGRjtzdHJva2Utd2lkdGg6MC41O30mI3hhOwkuc3QyMHtmaWxsOm5vbmU7c3Ryb2tlOiNGRkZGRkY7c3Ryb2tlLXdpZHRoOjQ7c3Ryb2tlLWxpbmVjYXA6cm91bmQ7c3Ryb2tlLW1pdGVybGltaXQ6MTA7fSYjeGE7CS5zdDIxe2ZpbGw6I0ZGRkZGRjtzdHJva2U6I0ZGRkZGRjtzdHJva2Utd2lkdGg6NDtzdHJva2UtbWl0ZXJsaW1pdDoxMDt9JiN4YTsJLnN0MjJ7ZmlsbDojMDAxMTM1O3N0cm9rZTojRkZGRkZGO3N0cm9rZS13aWR0aDo0O3N0cm9rZS1saW5lY2FwOnJvdW5kO3N0cm9rZS1taXRlcmxpbWl0OjEwO30mI3hhOwkuc3QyM3tmaWxsOm5vbmU7c3Ryb2tlOiNGRkZGRkY7c3Ryb2tlLXdpZHRoOjQ7c3Ryb2tlLWxpbmVjYXA6cm91bmQ7c3Ryb2tlLWxpbmVqb2luOnJvdW5kO30mI3hhOwkuc3QyNHtmaWxsOm5vbmU7c3Ryb2tlOiNGRkZGRkY7c3Ryb2tlLXdpZHRoOjQuMDAwMTt9JiN4YTsJLnN0MjV7ZmlsbDpub25lO3N0cm9rZTojRkZGRkZGO3N0cm9rZS13aWR0aDo0LjAwMDE7c3Ryb2tlLWxpbmVjYXA6cm91bmQ7fSYjeGE7CS5zdDI2e2ZpbGw6IzAwMTEzNTtzdHJva2U6I0ZGRkZGRjtzdHJva2Utd2lkdGg6NDt9JiN4YTsJLnN0Mjd7ZmlsbDpub25lO3N0cm9rZTojRkZGRkZGO3N0cm9rZS13aWR0aDo0O3N0cm9rZS1taXRlcmxpbWl0OjEwO3N0cm9rZS1kYXNoYXJyYXk6Ny45NjcsMy45ODM1O30mI3hhOwkuc3QyOHtmaWxsOm5vbmU7c3Ryb2tlOiNGRkZGRkY7c3Ryb2tlLXdpZHRoOjQ7c3Ryb2tlLW1pdGVybGltaXQ6MTA7c3Ryb2tlLWRhc2hhcnJheTo2LjU2MTQsMi4xODcxO30mI3hhOwkuc3QyOXtmaWxsOm5vbmU7c3Ryb2tlOiNGRkZGRkY7c3Ryb2tlLXdpZHRoOjQ7c3Ryb2tlLW1pdGVybGltaXQ6MTA7c3Ryb2tlLWRhc2hhcnJheToxNC4zOTA2LDQuNzk2OTt9JiN4YTsJLnN0MzB7ZmlsbDpub25lO3N0cm9rZTojRkZGRkZGO3N0cm9rZS13aWR0aDo0O3N0cm9rZS1taXRlcmxpbWl0OjEwO3N0cm9rZS1kYXNoYXJyYXk6OC44ODM5LDIuOTYxMzt9JiN4YTsJLnN0MzF7ZmlsbDpub25lO3N0cm9rZTojRkZGRkZGO3N0cm9rZS13aWR0aDo0O3N0cm9rZS1taXRlcmxpbWl0OjEwO3N0cm9rZS1kYXNoYXJyYXk6NC4zNzQzO30mI3hhOwkuc3QzMntmaWxsOm5vbmU7c3Ryb2tlOiNGRkZGRkY7c3Ryb2tlLXdpZHRoOjQ7c3Ryb2tlLW1pdGVybGltaXQ6MTA7c3Ryb2tlLWRhc2hhcnJheTo4LjIyNTgsMi43NDE5O30mI3hhOwkuc3QzM3tmaWxsOiMwMDExMzU7c3Ryb2tlOiNGRkZGRkY7c3Ryb2tlLXdpZHRoOjQuMDI1NTtzdHJva2UtbWl0ZXJsaW1pdDoxMDt9JiN4YTs8L3N0eWxlPiYjeGE7PHJlY3QgY2xhc3M9InN0MCIgd2lkdGg9IjE0MS43IiBoZWlnaHQ9IjE0MS43Ii8+JiN4YTs8cGF0aCBjbGFzcz0ic3QxIiBkPSJNNTcuNiwxMTYuMWgyNi41VjI1LjZINTcuNlYxMTYuMXogTTg4LjEsMTIwLjFINTMuNlYyMS42aDM0LjVWMTIwLjF6Ii8+JiN4YTs8cmVjdCB4PSI1NS42IiB5PSIzMy40IiBjbGFzcz0ic3QxIiB3aWR0aD0iMzAuNSIgaGVpZ2h0PSI0Ii8+JiN4YTs8cmVjdCB4PSI1NS42IiB5PSI4MC43IiBjbGFzcz0ic3QxIiB3aWR0aD0iMzAuNSIgaGVpZ2h0PSI0Ii8+JiN4YTs8cGF0aCBjbGFzcz0ic3QxIiBkPSJNNjQuNCw3MC45YzAtMS42LDEuMy0yLjgsMi44LTIuOGMxLjYsMCwyLjgsMS4zLDIuOCwyLjhjMCwxLjYtMS4zLDIuOC0yLjgsMi44QzY1LjYsNzMuNyw2NC40LDcyLjQsNjQuNCw3MC45Ii8+JiN4YTs8L3N2Zz4=;" vertex="1" parent="6mQIUUrpQCFZ34d5UZcA-1">
          <mxGeometry x="304" y="417.29" width="26" height="26" as="geometry" />
        </mxCell>
        <mxCell id="dvbZ92iPOWDQkblW2T_Y-7" value="" style="shape=image;editableCssRules=\.st[02];verticalLabelPosition=bottom;labelBackgroundColor=#ffffff;verticalAlign=top;aspect=fixed;imageAspect=0;image=data:image/svg+xml,PHN2ZyB4bWxucz0iaHR0cDovL3d3dy53My5vcmcvMjAwMC9zdmciIHhtbG5zOnhsaW5rPSJodHRwOi8vd3d3LnczLm9yZy8xOTk5L3hsaW5rIiB2ZXJzaW9uPSIxLjEiIGlkPSJMYXllcl8xIiB4PSIwcHgiIHk9IjBweCIgd2lkdGg9IjE0MS42OTk5OTY5NDgyNDIyIiBoZWlnaHQ9IjE0MS42OTk5OTY5NDgyNDIyIiB2aWV3Qm94PSIwIDAgMTQxLjY5OTk5Njk0ODI0MjIgMTQxLjY5OTk5Njk0ODI0MjIiIHN0eWxlPSJlbmFibGUtYmFja2dyb3VuZDpuZXcgMCAwIDE0MS43IDE0MS43OyIgeG1sOnNwYWNlPSJwcmVzZXJ2ZSI+JiN4YTs8c3R5bGUgdHlwZT0idGV4dC9jc3MiPiYjeGE7CS5zdDB7ZmlsbDojMDAxMTM1O30mI3hhOwkuc3Qxe2ZpbGw6I0ZGRkZGRjt9JiN4YTsJLnN0MntmaWxsOm5vbmU7c3Ryb2tlOiNGRkZGRkY7c3Ryb2tlLXdpZHRoOjQ7c3Ryb2tlLW1pdGVybGltaXQ6MTA7fSYjeGE7CS5zdDN7ZmlsbDpub25lO3N0cm9rZTojRkZGRkZGO3N0cm9rZS13aWR0aDo0O3N0cm9rZS1saW5lam9pbjpyb3VuZDt9JiN4YTsJLnN0NHtmaWxsOiNGRkZGRkY7c3Ryb2tlOiNGRkZGRkY7c3Ryb2tlLW1pdGVybGltaXQ6MTA7fSYjeGE7CS5zdDV7ZmlsbDpub25lO30mI3hhOwkuc3Q2e2ZpbGw6I0ZGRkZGRjtzdHJva2U6I0ZGRkZGRjtzdHJva2Utd2lkdGg6MS42O3N0cm9rZS1taXRlcmxpbWl0OjEwO30mI3hhOwkuc3Q3e2ZpbGw6bm9uZTtzdHJva2U6I0ZGRkZGRjtzdHJva2Utd2lkdGg6NDt9JiN4YTsJLnN0OHtmaWxsOiMwMDExMzU7c3Ryb2tlOiNGRkZGRkY7c3Ryb2tlLXdpZHRoOjQ7c3Ryb2tlLW1pdGVybGltaXQ6MTA7fSYjeGE7CS5zdDl7ZmlsbDpub25lO3N0cm9rZTojRkZGRkZGO3N0cm9rZS13aWR0aDo0LjAwMDI7c3Ryb2tlLW1pdGVybGltaXQ6MTA7fSYjeGE7CS5zdDEwe2ZpbGw6bm9uZTtzdHJva2U6I0ZGRkZGRjtzdHJva2Utd2lkdGg6MC4zO3N0cm9rZS1taXRlcmxpbWl0OjEwO30mI3hhOwkuc3QxMXtmaWxsOm5vbmU7c3Ryb2tlOiNGRkZGRkY7c3Ryb2tlLXdpZHRoOjMuOTk5NTtzdHJva2UtbWl0ZXJsaW1pdDoxMDt9JiN4YTsJLnN0MTJ7ZmlsbDpub25lO3N0cm9rZTojRkZGRkZGO3N0cm9rZS13aWR0aDozLjk5OTY7c3Ryb2tlLW1pdGVybGltaXQ6MTA7fSYjeGE7CS5zdDEze2ZpbGw6bm9uZTtzdHJva2U6I0ZGRkZGRjtzdHJva2Utd2lkdGg6MztzdHJva2UtbWl0ZXJsaW1pdDoxMDt9JiN4YTsJLnN0MTR7ZmlsbDpub25lO3N0cm9rZTojRkZGRkZGO3N0cm9rZS13aWR0aDo0O3N0cm9rZS1saW5lam9pbjpyb3VuZDtzdHJva2UtbWl0ZXJsaW1pdDoxMDt9JiN4YTsJLnN0MTV7ZmlsbDpub25lO3N0cm9rZTojRkZGRkZGO3N0cm9rZS13aWR0aDo0O3N0cm9rZS1saW5lY2FwOnJvdW5kO3N0cm9rZS1saW5lam9pbjpyb3VuZDtzdHJva2UtbWl0ZXJsaW1pdDoxMDt9JiN4YTsJLnN0MTZ7ZmlsbDojMDAxODQ1O3N0cm9rZTojRkZGRkZGO3N0cm9rZS13aWR0aDo0LjM1NjY7c3Ryb2tlLWxpbmVjYXA6cm91bmQ7c3Ryb2tlLWxpbmVqb2luOnJvdW5kO3N0cm9rZS1taXRlcmxpbWl0OjEwO30mI3hhOwkuc3QxN3tmaWxsOm5vbmU7c3Ryb2tlOiNGRkZGRkY7c3Ryb2tlLXdpZHRoOjQ7c3Ryb2tlLWxpbmVjYXA6cm91bmQ7fSYjeGE7CS5zdDE4e2ZpbGw6IzAwMTEzNTtzdHJva2U6I0ZGRkZGRjtzdHJva2Utd2lkdGg6NDtzdHJva2UtbGluZWNhcDpyb3VuZDtzdHJva2UtbGluZWpvaW46cm91bmQ7fSYjeGE7CS5zdDE5e2ZpbGw6I0ZGRkZGRjtzdHJva2U6I0ZGRkZGRjtzdHJva2Utd2lkdGg6MC41O30mI3hhOwkuc3QyMHtmaWxsOm5vbmU7c3Ryb2tlOiNGRkZGRkY7c3Ryb2tlLXdpZHRoOjQ7c3Ryb2tlLWxpbmVjYXA6cm91bmQ7c3Ryb2tlLW1pdGVybGltaXQ6MTA7fSYjeGE7CS5zdDIxe2ZpbGw6I0ZGRkZGRjtzdHJva2U6I0ZGRkZGRjtzdHJva2Utd2lkdGg6NDtzdHJva2UtbWl0ZXJsaW1pdDoxMDt9JiN4YTsJLnN0MjJ7ZmlsbDojMDAxMTM1O3N0cm9rZTojRkZGRkZGO3N0cm9rZS13aWR0aDo0O3N0cm9rZS1saW5lY2FwOnJvdW5kO3N0cm9rZS1taXRlcmxpbWl0OjEwO30mI3hhOwkuc3QyM3tmaWxsOm5vbmU7c3Ryb2tlOiNGRkZGRkY7c3Ryb2tlLXdpZHRoOjQ7c3Ryb2tlLWxpbmVjYXA6cm91bmQ7c3Ryb2tlLWxpbmVqb2luOnJvdW5kO30mI3hhOwkuc3QyNHtmaWxsOm5vbmU7c3Ryb2tlOiNGRkZGRkY7c3Ryb2tlLXdpZHRoOjQuMDAwMTt9JiN4YTsJLnN0MjV7ZmlsbDpub25lO3N0cm9rZTojRkZGRkZGO3N0cm9rZS13aWR0aDo0LjAwMDE7c3Ryb2tlLWxpbmVjYXA6cm91bmQ7fSYjeGE7CS5zdDI2e2ZpbGw6IzAwMTEzNTtzdHJva2U6I0ZGRkZGRjtzdHJva2Utd2lkdGg6NDt9JiN4YTsJLnN0Mjd7ZmlsbDpub25lO3N0cm9rZTojRkZGRkZGO3N0cm9rZS13aWR0aDo0O3N0cm9rZS1taXRlcmxpbWl0OjEwO3N0cm9rZS1kYXNoYXJyYXk6Ny45NjcsMy45ODM1O30mI3hhOwkuc3QyOHtmaWxsOm5vbmU7c3Ryb2tlOiNGRkZGRkY7c3Ryb2tlLXdpZHRoOjQ7c3Ryb2tlLW1pdGVybGltaXQ6MTA7c3Ryb2tlLWRhc2hhcnJheTo2LjU2MTQsMi4xODcxO30mI3hhOwkuc3QyOXtmaWxsOm5vbmU7c3Ryb2tlOiNGRkZGRkY7c3Ryb2tlLXdpZHRoOjQ7c3Ryb2tlLW1pdGVybGltaXQ6MTA7c3Ryb2tlLWRhc2hhcnJheToxNC4zOTA2LDQuNzk2OTt9JiN4YTsJLnN0MzB7ZmlsbDpub25lO3N0cm9rZTojRkZGRkZGO3N0cm9rZS13aWR0aDo0O3N0cm9rZS1taXRlcmxpbWl0OjEwO3N0cm9rZS1kYXNoYXJyYXk6OC44ODM5LDIuOTYxMzt9JiN4YTsJLnN0MzF7ZmlsbDpub25lO3N0cm9rZTojRkZGRkZGO3N0cm9rZS13aWR0aDo0O3N0cm9rZS1taXRlcmxpbWl0OjEwO3N0cm9rZS1kYXNoYXJyYXk6NC4zNzQzO30mI3hhOwkuc3QzMntmaWxsOm5vbmU7c3Ryb2tlOiNGRkZGRkY7c3Ryb2tlLXdpZHRoOjQ7c3Ryb2tlLW1pdGVybGltaXQ6MTA7c3Ryb2tlLWRhc2hhcnJheTo4LjIyNTgsMi43NDE5O30mI3hhOwkuc3QzM3tmaWxsOiMwMDExMzU7c3Ryb2tlOiNGRkZGRkY7c3Ryb2tlLXdpZHRoOjQuMDI1NTtzdHJva2UtbWl0ZXJsaW1pdDoxMDt9JiN4YTs8L3N0eWxlPiYjeGE7PHJlY3QgY2xhc3M9InN0MCIgd2lkdGg9IjE0MS43IiBoZWlnaHQ9IjE0MS43Ii8+JiN4YTs8cGF0aCBjbGFzcz0ic3QxIiBkPSJNNTcuNiwxMTYuMWgyNi41VjI1LjZINTcuNlYxMTYuMXogTTg4LjEsMTIwLjFINTMuNlYyMS42aDM0LjVWMTIwLjF6Ii8+JiN4YTs8cmVjdCB4PSI1NS42IiB5PSIzMy40IiBjbGFzcz0ic3QxIiB3aWR0aD0iMzAuNSIgaGVpZ2h0PSI0Ii8+JiN4YTs8cmVjdCB4PSI1NS42IiB5PSI4MC43IiBjbGFzcz0ic3QxIiB3aWR0aD0iMzAuNSIgaGVpZ2h0PSI0Ii8+JiN4YTs8cGF0aCBjbGFzcz0ic3QxIiBkPSJNNjQuNCw3MC45YzAtMS42LDEuMy0yLjgsMi44LTIuOGMxLjYsMCwyLjgsMS4zLDIuOCwyLjhjMCwxLjYtMS4zLDIuOC0yLjgsMi44QzY1LjYsNzMuNyw2NC40LDcyLjQsNjQuNCw3MC45Ii8+JiN4YTs8L3N2Zz4=;" vertex="1" parent="6mQIUUrpQCFZ34d5UZcA-1">
          <mxGeometry x="415" y="417.29" width="26" height="26" as="geometry" />
        </mxCell>
      </root>
    </mxGraphModel>
  </diagram>
  <diagram name="Copy of Page-1" id="yb3YluC6WWoFXuuQLBH2">
    <mxGraphModel dx="879" dy="494" grid="1" gridSize="1" guides="1" tooltips="1" connect="1" arrows="1" fold="1" page="1" pageScale="1" pageWidth="827" pageHeight="1169" background="#4D5766" math="0" shadow="0">
      <root>
        <mxCell id="xijNGImhPQJAxCGllO0L-0" />
        <mxCell id="xijNGImhPQJAxCGllO0L-1" parent="xijNGImhPQJAxCGllO0L-0" />
        <mxCell id="xijNGImhPQJAxCGllO0L-2" style="rounded=0;orthogonalLoop=1;jettySize=auto;html=1;exitX=0.5;exitY=0;exitDx=0;exitDy=0;startSize=6;endArrow=none;endFill=0;endSize=2;fontFamily=Manrope;fontSize=8;strokeColor=#98A2AE;fontSource=https%3A%2F%2Ffonts.googleapis.com%2Fcss%3Ffamily%3DManrope;entryX=0;entryY=1;entryDx=0;entryDy=0;" edge="1" parent="xijNGImhPQJAxCGllO0L-1" source="qC55MVkfCOsU_-m7H0vn-6" target="qC55MVkfCOsU_-m7H0vn-9">
          <mxGeometry relative="1" as="geometry">
            <mxPoint x="317" y="326" as="sourcePoint" />
            <mxPoint x="354" y="302" as="targetPoint" />
          </mxGeometry>
        </mxCell>
        <mxCell id="xijNGImhPQJAxCGllO0L-3" style="rounded=0;orthogonalLoop=1;jettySize=auto;html=1;exitX=0.5;exitY=0;exitDx=0;exitDy=0;entryX=0.5;entryY=1;entryDx=0;entryDy=0;startSize=6;endArrow=none;endFill=0;endSize=2;fontFamily=Manrope;fontSize=8;strokeColor=#98A2AE;fontSource=https%3A%2F%2Ffonts.googleapis.com%2Fcss%3Ffamily%3DManrope;" edge="1" parent="xijNGImhPQJAxCGllO0L-1" source="qC55MVkfCOsU_-m7H0vn-19" target="qC55MVkfCOsU_-m7H0vn-12">
          <mxGeometry relative="1" as="geometry">
            <mxPoint x="319" y="328" as="sourcePoint" />
            <mxPoint x="341" y="304" as="targetPoint" />
          </mxGeometry>
        </mxCell>
        <mxCell id="xijNGImhPQJAxCGllO0L-4" value="&lt;font&gt;leaf1&lt;br&gt;&lt;/font&gt;" style="text;html=1;align=center;verticalAlign=middle;resizable=0;points=[];autosize=1;fontSize=10;fontFamily=Manrope;fontStyle=0;fontColor=#FFFFFF;" vertex="1" parent="xijNGImhPQJAxCGllO0L-1">
          <mxGeometry x="256" y="362" width="32" height="17" as="geometry" />
        </mxCell>
        <mxCell id="xijNGImhPQJAxCGllO0L-5" value="" style="group;fontFamily=Manrope;fontSource=https%3A%2F%2Ffonts.googleapis.com%2Fcss%3Ffamily%3DManrope;" vertex="1" connectable="0" parent="xijNGImhPQJAxCGllO0L-1">
          <mxGeometry x="413" y="376.21" width="30" height="30" as="geometry" />
        </mxCell>
        <mxCell id="xijNGImhPQJAxCGllO0L-6" value="" style="whiteSpace=wrap;html=1;aspect=fixed;fillColor=#001135;strokeColor=none;connectable=1;allowArrows=1;fontFamily=Manrope;fontSource=https%3A%2F%2Ffonts.googleapis.com%2Fcss%3Ffamily%3DManrope;" vertex="1" parent="xijNGImhPQJAxCGllO0L-5">
          <mxGeometry width="30" height="30" as="geometry" />
        </mxCell>
        <mxCell id="xijNGImhPQJAxCGllO0L-7" value="" style="endArrow=open;html=1;edgeStyle=orthogonalEdgeStyle;rounded=0;endFill=0;startSize=6;endSize=2;strokeColor=#FFFFFF;fontFamily=Manrope;fontSource=https%3A%2F%2Ffonts.googleapis.com%2Fcss%3Ffamily%3DManrope;" edge="1" parent="xijNGImhPQJAxCGllO0L-5">
          <mxGeometry width="50" height="50" relative="1" as="geometry">
            <mxPoint x="3" y="12" as="sourcePoint" />
            <mxPoint x="11" y="3" as="targetPoint" />
            <Array as="points">
              <mxPoint x="11" y="12" />
            </Array>
          </mxGeometry>
        </mxCell>
        <mxCell id="xijNGImhPQJAxCGllO0L-8" value="" style="endArrow=open;html=1;edgeStyle=orthogonalEdgeStyle;rounded=0;endFill=0;startSize=6;endSize=2;strokeColor=#FFFFFF;fontFamily=Manrope;fontSource=https%3A%2F%2Ffonts.googleapis.com%2Fcss%3Ffamily%3DManrope;" edge="1" parent="xijNGImhPQJAxCGllO0L-5">
          <mxGeometry width="50" height="50" relative="1" as="geometry">
            <mxPoint x="11" y="27" as="sourcePoint" />
            <mxPoint x="3" y="19" as="targetPoint" />
            <Array as="points">
              <mxPoint x="11" y="19" />
            </Array>
          </mxGeometry>
        </mxCell>
        <mxCell id="xijNGImhPQJAxCGllO0L-9" value="" style="endArrow=open;html=1;edgeStyle=orthogonalEdgeStyle;rounded=0;endFill=0;startSize=6;endSize=2;strokeColor=#FFFFFF;fontFamily=Manrope;fontSource=https%3A%2F%2Ffonts.googleapis.com%2Fcss%3Ffamily%3DManrope;" edge="1" parent="xijNGImhPQJAxCGllO0L-5">
          <mxGeometry width="50" height="50" relative="1" as="geometry">
            <mxPoint x="18" y="3" as="sourcePoint" />
            <mxPoint x="27" y="12" as="targetPoint" />
            <Array as="points">
              <mxPoint x="18" y="12" />
            </Array>
          </mxGeometry>
        </mxCell>
        <mxCell id="xijNGImhPQJAxCGllO0L-10" value="" style="endArrow=open;html=1;edgeStyle=orthogonalEdgeStyle;rounded=0;endFill=0;startSize=6;endSize=2;strokeColor=#FFFFFF;fontFamily=Manrope;fontSource=https%3A%2F%2Ffonts.googleapis.com%2Fcss%3Ffamily%3DManrope;" edge="1" parent="xijNGImhPQJAxCGllO0L-5">
          <mxGeometry width="50" height="50" relative="1" as="geometry">
            <mxPoint x="27" y="19" as="sourcePoint" />
            <mxPoint x="18" y="27" as="targetPoint" />
            <Array as="points">
              <mxPoint x="18" y="19" />
            </Array>
          </mxGeometry>
        </mxCell>
        <mxCell id="qC55MVkfCOsU_-m7H0vn-19" value="49" style="ellipse;whiteSpace=wrap;html=1;aspect=fixed;fontColor=#FFFFFF;fontSize=6;strokeColor=#98A2AE;fontFamily=Manrope;fontSource=https%3A%2F%2Ffonts.googleapis.com%2Fcss%3Ffamily%3DManrope;fillColor=#BEC8D2;" vertex="1" parent="xijNGImhPQJAxCGllO0L-5">
          <mxGeometry x="11" y="-6.2099999999999795" width="8" height="8" as="geometry" />
        </mxCell>
        <mxCell id="xijNGImhPQJAxCGllO0L-11" value="" style="group" vertex="1" connectable="0" parent="xijNGImhPQJAxCGllO0L-1">
          <mxGeometry x="281" y="376.21" width="30" height="30" as="geometry" />
        </mxCell>
        <mxCell id="xijNGImhPQJAxCGllO0L-12" value="" style="whiteSpace=wrap;html=1;aspect=fixed;fillColor=#001135;strokeColor=none;connectable=1;allowArrows=1;fontFamily=Manrope;fontSource=https%3A%2F%2Ffonts.googleapis.com%2Fcss%3Ffamily%3DManrope;" vertex="1" parent="xijNGImhPQJAxCGllO0L-11">
          <mxGeometry width="30" height="30" as="geometry" />
        </mxCell>
        <mxCell id="xijNGImhPQJAxCGllO0L-13" value="" style="endArrow=open;html=1;edgeStyle=orthogonalEdgeStyle;rounded=0;endFill=0;startSize=6;endSize=2;strokeColor=#FFFFFF;fontFamily=Manrope;fontSource=https%3A%2F%2Ffonts.googleapis.com%2Fcss%3Ffamily%3DManrope;" edge="1" parent="xijNGImhPQJAxCGllO0L-11">
          <mxGeometry width="50" height="50" as="geometry">
            <mxPoint x="3" y="12" as="sourcePoint" />
            <mxPoint x="11" y="3" as="targetPoint" />
            <Array as="points">
              <mxPoint x="11" y="12" />
            </Array>
          </mxGeometry>
        </mxCell>
        <mxCell id="xijNGImhPQJAxCGllO0L-14" value="" style="endArrow=open;html=1;edgeStyle=orthogonalEdgeStyle;rounded=0;endFill=0;startSize=6;endSize=2;strokeColor=#FFFFFF;fontFamily=Manrope;fontSource=https%3A%2F%2Ffonts.googleapis.com%2Fcss%3Ffamily%3DManrope;" edge="1" parent="xijNGImhPQJAxCGllO0L-11">
          <mxGeometry width="50" height="50" as="geometry">
            <mxPoint x="11" y="27" as="sourcePoint" />
            <mxPoint x="3" y="19" as="targetPoint" />
            <Array as="points">
              <mxPoint x="11" y="19" />
            </Array>
          </mxGeometry>
        </mxCell>
        <mxCell id="xijNGImhPQJAxCGllO0L-15" value="" style="endArrow=open;html=1;edgeStyle=orthogonalEdgeStyle;rounded=0;endFill=0;startSize=6;endSize=2;strokeColor=#FFFFFF;fontFamily=Manrope;fontSource=https%3A%2F%2Ffonts.googleapis.com%2Fcss%3Ffamily%3DManrope;" edge="1" parent="xijNGImhPQJAxCGllO0L-11">
          <mxGeometry width="50" height="50" as="geometry">
            <mxPoint x="18" y="3" as="sourcePoint" />
            <mxPoint x="27" y="12" as="targetPoint" />
            <Array as="points">
              <mxPoint x="18" y="12" />
            </Array>
          </mxGeometry>
        </mxCell>
        <mxCell id="xijNGImhPQJAxCGllO0L-16" value="" style="endArrow=open;html=1;edgeStyle=orthogonalEdgeStyle;rounded=0;endFill=0;startSize=6;endSize=2;strokeColor=#FFFFFF;fontFamily=Manrope;fontSource=https%3A%2F%2Ffonts.googleapis.com%2Fcss%3Ffamily%3DManrope;" edge="1" parent="xijNGImhPQJAxCGllO0L-11">
          <mxGeometry width="50" height="50" as="geometry">
            <mxPoint x="27" y="19" as="sourcePoint" />
            <mxPoint x="18" y="27" as="targetPoint" />
            <Array as="points">
              <mxPoint x="18" y="19" />
            </Array>
          </mxGeometry>
        </mxCell>
        <mxCell id="qC55MVkfCOsU_-m7H0vn-6" value="49" style="ellipse;whiteSpace=wrap;html=1;aspect=fixed;fontColor=#FFFFFF;fontSize=6;strokeColor=#98A2AE;fontFamily=Manrope;fontSource=https%3A%2F%2Ffonts.googleapis.com%2Fcss%3Ffamily%3DManrope;fillColor=#BEC8D2;" vertex="1" parent="xijNGImhPQJAxCGllO0L-11">
          <mxGeometry x="11" y="-7.2099999999999795" width="8" height="8" as="geometry" />
        </mxCell>
        <mxCell id="xijNGImhPQJAxCGllO0L-17" value="&lt;font&gt;leaf3&lt;br&gt;&lt;/font&gt;" style="text;html=1;align=center;verticalAlign=middle;resizable=0;points=[];autosize=1;fontSize=10;fontFamily=Manrope;fontStyle=0;fontColor=#FFFFFF;" vertex="1" parent="xijNGImhPQJAxCGllO0L-1">
          <mxGeometry x="387" y="362" width="34" height="17" as="geometry" />
        </mxCell>
        <mxCell id="xijNGImhPQJAxCGllO0L-18" value="&lt;font&gt;spine1&lt;br&gt;&lt;/font&gt;" style="text;html=1;align=center;verticalAlign=middle;resizable=0;points=[];autosize=1;fontSize=10;fontFamily=Manrope;fontStyle=0;fontColor=#FFFFFF;connectable=0;" vertex="1" parent="xijNGImhPQJAxCGllO0L-1">
          <mxGeometry x="361.5" y="254" width="40" height="17" as="geometry" />
        </mxCell>
        <mxCell id="xijNGImhPQJAxCGllO0L-19" value="&lt;font style=&quot;font-size: 10px&quot;&gt;client1&lt;/font&gt;" style="text;html=1;align=center;verticalAlign=middle;resizable=0;points=[];autosize=1;fontSize=10;fontFamily=Manrope;fontStyle=0;fontColor=#FFFFFF;" vertex="1" parent="xijNGImhPQJAxCGllO0L-1">
          <mxGeometry x="297" y="459.44" width="41" height="17" as="geometry" />
        </mxCell>
        <mxCell id="xijNGImhPQJAxCGllO0L-20" style="rounded=0;orthogonalLoop=1;jettySize=auto;html=1;exitX=0.5;exitY=0;exitDx=0;exitDy=0;startSize=6;endArrow=none;endFill=0;endSize=2;fontFamily=Manrope;fontSize=8;strokeColor=#98A2AE;fontSource=https%3A%2F%2Ffonts.googleapis.com%2Fcss%3Ffamily%3DManrope;entryX=0.5;entryY=1;entryDx=0;entryDy=0;startArrow=none;" edge="1" parent="xijNGImhPQJAxCGllO0L-1" source="qC55MVkfCOsU_-m7H0vn-2" target="qC55MVkfCOsU_-m7H0vn-5">
          <mxGeometry relative="1" as="geometry">
            <mxPoint x="317.0987037037037" y="443" as="sourcePoint" />
            <mxPoint x="375" y="278" as="targetPoint" />
          </mxGeometry>
        </mxCell>
        <mxCell id="xijNGImhPQJAxCGllO0L-21" value="&lt;font style=&quot;font-size: 10px&quot;&gt;client2&lt;/font&gt;" style="text;html=1;align=center;verticalAlign=middle;resizable=0;points=[];autosize=1;fontSize=10;fontFamily=Manrope;fontStyle=0;fontColor=#FFFFFF;" vertex="1" parent="xijNGImhPQJAxCGllO0L-1">
          <mxGeometry x="427" y="459.44" width="43" height="17" as="geometry" />
        </mxCell>
        <mxCell id="xijNGImhPQJAxCGllO0L-22" style="rounded=0;orthogonalLoop=1;jettySize=auto;html=1;startSize=6;endArrow=none;endFill=0;endSize=2;fontFamily=Manrope;fontSize=8;strokeColor=#98A2AE;fontSource=https%3A%2F%2Ffonts.googleapis.com%2Fcss%3Ffamily%3DManrope;entryX=0.5;entryY=0;entryDx=0;entryDy=0;exitX=0.5;exitY=1;exitDx=0;exitDy=0;startArrow=none;" edge="1" parent="xijNGImhPQJAxCGllO0L-1" source="qC55MVkfCOsU_-m7H0vn-16" target="qC55MVkfCOsU_-m7H0vn-14">
          <mxGeometry relative="1" as="geometry">
            <mxPoint x="479" y="380" as="sourcePoint" />
            <mxPoint x="428.0987037037038" y="443" as="targetPoint" />
          </mxGeometry>
        </mxCell>
        <mxCell id="xijNGImhPQJAxCGllO0L-23" value="" style="group;fontFamily=Manrope;fontSource=https%3A%2F%2Ffonts.googleapis.com%2Fcss%3Ffamily%3DManrope;" vertex="1" connectable="0" parent="xijNGImhPQJAxCGllO0L-1">
          <mxGeometry x="366.5" y="272" width="34.5" height="35" as="geometry" />
        </mxCell>
        <mxCell id="xijNGImhPQJAxCGllO0L-24" value="" style="whiteSpace=wrap;html=1;aspect=fixed;fillColor=#001135;strokeColor=none;connectable=1;allowArrows=1;fontFamily=Manrope;fontSource=https%3A%2F%2Ffonts.googleapis.com%2Fcss%3Ffamily%3DManrope;" vertex="1" parent="xijNGImhPQJAxCGllO0L-23">
          <mxGeometry width="30" height="30" as="geometry" />
        </mxCell>
        <mxCell id="xijNGImhPQJAxCGllO0L-25" value="" style="endArrow=open;html=1;edgeStyle=orthogonalEdgeStyle;rounded=0;endFill=0;startSize=6;endSize=2;strokeColor=#FFFFFF;fontFamily=Manrope;fontSource=https%3A%2F%2Ffonts.googleapis.com%2Fcss%3Ffamily%3DManrope;" edge="1" parent="xijNGImhPQJAxCGllO0L-23">
          <mxGeometry width="50" height="50" relative="1" as="geometry">
            <mxPoint x="3" y="12" as="sourcePoint" />
            <mxPoint x="11" y="3" as="targetPoint" />
            <Array as="points">
              <mxPoint x="11" y="12" />
            </Array>
          </mxGeometry>
        </mxCell>
        <mxCell id="xijNGImhPQJAxCGllO0L-26" value="" style="endArrow=open;html=1;edgeStyle=orthogonalEdgeStyle;rounded=0;endFill=0;startSize=6;endSize=2;strokeColor=#FFFFFF;fontFamily=Manrope;fontSource=https%3A%2F%2Ffonts.googleapis.com%2Fcss%3Ffamily%3DManrope;" edge="1" parent="xijNGImhPQJAxCGllO0L-23">
          <mxGeometry width="50" height="50" relative="1" as="geometry">
            <mxPoint x="11" y="27" as="sourcePoint" />
            <mxPoint x="3" y="19" as="targetPoint" />
            <Array as="points">
              <mxPoint x="11" y="19" />
            </Array>
          </mxGeometry>
        </mxCell>
        <mxCell id="xijNGImhPQJAxCGllO0L-27" value="" style="endArrow=open;html=1;edgeStyle=orthogonalEdgeStyle;rounded=0;endFill=0;startSize=6;endSize=2;strokeColor=#FFFFFF;fontFamily=Manrope;fontSource=https%3A%2F%2Ffonts.googleapis.com%2Fcss%3Ffamily%3DManrope;" edge="1" parent="xijNGImhPQJAxCGllO0L-23">
          <mxGeometry width="50" height="50" relative="1" as="geometry">
            <mxPoint x="18" y="3" as="sourcePoint" />
            <mxPoint x="27" y="12" as="targetPoint" />
            <Array as="points">
              <mxPoint x="18" y="12" />
            </Array>
          </mxGeometry>
        </mxCell>
        <mxCell id="xijNGImhPQJAxCGllO0L-28" value="" style="endArrow=open;html=1;edgeStyle=orthogonalEdgeStyle;rounded=0;endFill=0;startSize=6;endSize=2;strokeColor=#FFFFFF;fontFamily=Manrope;fontSource=https%3A%2F%2Ffonts.googleapis.com%2Fcss%3Ffamily%3DManrope;" edge="1" parent="xijNGImhPQJAxCGllO0L-23">
          <mxGeometry width="50" height="50" relative="1" as="geometry">
            <mxPoint x="27" y="19" as="sourcePoint" />
            <mxPoint x="18" y="27" as="targetPoint" />
            <Array as="points">
              <mxPoint x="18" y="19" />
            </Array>
          </mxGeometry>
        </mxCell>
        <mxCell id="qC55MVkfCOsU_-m7H0vn-9" value="1" style="ellipse;whiteSpace=wrap;html=1;aspect=fixed;fontColor=#FFFFFF;fontSize=6;strokeColor=#98A2AE;fontFamily=Manrope;fontSource=https%3A%2F%2Ffonts.googleapis.com%2Fcss%3Ffamily%3DManrope;fillColor=#BEC8D2;" vertex="1" parent="xijNGImhPQJAxCGllO0L-23">
          <mxGeometry x="-1.5" y="28" width="8" height="8" as="geometry" />
        </mxCell>
        <mxCell id="qC55MVkfCOsU_-m7H0vn-12" value="3" style="ellipse;whiteSpace=wrap;html=1;aspect=fixed;fontColor=#FFFFFF;fontSize=6;strokeColor=#98A2AE;fontFamily=Manrope;fontSource=https%3A%2F%2Ffonts.googleapis.com%2Fcss%3Ffamily%3DManrope;fillColor=#BEC8D2;" vertex="1" parent="xijNGImhPQJAxCGllO0L-23">
          <mxGeometry x="15.5" y="28" width="8" height="8" as="geometry" />
        </mxCell>
        <mxCell id="qC55MVkfCOsU_-m7H0vn-13" value="4" style="ellipse;whiteSpace=wrap;html=1;aspect=fixed;fontColor=#FFFFFF;fontSize=6;strokeColor=#98A2AE;fontFamily=Manrope;fontSource=https%3A%2F%2Ffonts.googleapis.com%2Fcss%3Ffamily%3DManrope;fillColor=#BEC8D2;" vertex="1" parent="xijNGImhPQJAxCGllO0L-23">
          <mxGeometry x="23.5" y="28" width="8" height="8" as="geometry" />
        </mxCell>
        <mxCell id="xijNGImhPQJAxCGllO0L-29" value="" style="shape=image;editableCssRules=\.st[02];verticalLabelPosition=bottom;labelBackgroundColor=#ffffff;verticalAlign=top;aspect=fixed;imageAspect=0;image=data:image/svg+xml,PHN2ZyB4bWxucz0iaHR0cDovL3d3dy53My5vcmcvMjAwMC9zdmciIHhtbG5zOnhsaW5rPSJodHRwOi8vd3d3LnczLm9yZy8xOTk5L3hsaW5rIiB2ZXJzaW9uPSIxLjEiIGlkPSJMYXllcl8xIiB4PSIwcHgiIHk9IjBweCIgd2lkdGg9IjE0MS42OTk5OTY5NDgyNDIyIiBoZWlnaHQ9IjE0MS42OTk5OTY5NDgyNDIyIiB2aWV3Qm94PSIwIDAgMTQxLjY5OTk5Njk0ODI0MjIgMTQxLjY5OTk5Njk0ODI0MjIiIHN0eWxlPSJlbmFibGUtYmFja2dyb3VuZDpuZXcgMCAwIDE0MS43IDE0MS43OyIgeG1sOnNwYWNlPSJwcmVzZXJ2ZSI+JiN4YTs8c3R5bGUgdHlwZT0idGV4dC9jc3MiPiYjeGE7CS5zdDB7ZmlsbDojMDAxMTM1O30mI3hhOwkuc3Qxe2ZpbGw6I0ZGRkZGRjt9JiN4YTsJLnN0MntmaWxsOm5vbmU7c3Ryb2tlOiNGRkZGRkY7c3Ryb2tlLXdpZHRoOjQ7c3Ryb2tlLW1pdGVybGltaXQ6MTA7fSYjeGE7CS5zdDN7ZmlsbDpub25lO3N0cm9rZTojRkZGRkZGO3N0cm9rZS13aWR0aDo0O3N0cm9rZS1saW5lam9pbjpyb3VuZDt9JiN4YTsJLnN0NHtmaWxsOiNGRkZGRkY7c3Ryb2tlOiNGRkZGRkY7c3Ryb2tlLW1pdGVybGltaXQ6MTA7fSYjeGE7CS5zdDV7ZmlsbDpub25lO30mI3hhOwkuc3Q2e2ZpbGw6I0ZGRkZGRjtzdHJva2U6I0ZGRkZGRjtzdHJva2Utd2lkdGg6MS42O3N0cm9rZS1taXRlcmxpbWl0OjEwO30mI3hhOwkuc3Q3e2ZpbGw6bm9uZTtzdHJva2U6I0ZGRkZGRjtzdHJva2Utd2lkdGg6NDt9JiN4YTsJLnN0OHtmaWxsOiMwMDExMzU7c3Ryb2tlOiNGRkZGRkY7c3Ryb2tlLXdpZHRoOjQ7c3Ryb2tlLW1pdGVybGltaXQ6MTA7fSYjeGE7CS5zdDl7ZmlsbDpub25lO3N0cm9rZTojRkZGRkZGO3N0cm9rZS13aWR0aDo0LjAwMDI7c3Ryb2tlLW1pdGVybGltaXQ6MTA7fSYjeGE7CS5zdDEwe2ZpbGw6bm9uZTtzdHJva2U6I0ZGRkZGRjtzdHJva2Utd2lkdGg6MC4zO3N0cm9rZS1taXRlcmxpbWl0OjEwO30mI3hhOwkuc3QxMXtmaWxsOm5vbmU7c3Ryb2tlOiNGRkZGRkY7c3Ryb2tlLXdpZHRoOjMuOTk5NTtzdHJva2UtbWl0ZXJsaW1pdDoxMDt9JiN4YTsJLnN0MTJ7ZmlsbDpub25lO3N0cm9rZTojRkZGRkZGO3N0cm9rZS13aWR0aDozLjk5OTY7c3Ryb2tlLW1pdGVybGltaXQ6MTA7fSYjeGE7CS5zdDEze2ZpbGw6bm9uZTtzdHJva2U6I0ZGRkZGRjtzdHJva2Utd2lkdGg6MztzdHJva2UtbWl0ZXJsaW1pdDoxMDt9JiN4YTsJLnN0MTR7ZmlsbDpub25lO3N0cm9rZTojRkZGRkZGO3N0cm9rZS13aWR0aDo0O3N0cm9rZS1saW5lam9pbjpyb3VuZDtzdHJva2UtbWl0ZXJsaW1pdDoxMDt9JiN4YTsJLnN0MTV7ZmlsbDpub25lO3N0cm9rZTojRkZGRkZGO3N0cm9rZS13aWR0aDo0O3N0cm9rZS1saW5lY2FwOnJvdW5kO3N0cm9rZS1saW5lam9pbjpyb3VuZDtzdHJva2UtbWl0ZXJsaW1pdDoxMDt9JiN4YTsJLnN0MTZ7ZmlsbDojMDAxODQ1O3N0cm9rZTojRkZGRkZGO3N0cm9rZS13aWR0aDo0LjM1NjY7c3Ryb2tlLWxpbmVjYXA6cm91bmQ7c3Ryb2tlLWxpbmVqb2luOnJvdW5kO3N0cm9rZS1taXRlcmxpbWl0OjEwO30mI3hhOwkuc3QxN3tmaWxsOm5vbmU7c3Ryb2tlOiNGRkZGRkY7c3Ryb2tlLXdpZHRoOjQ7c3Ryb2tlLWxpbmVjYXA6cm91bmQ7fSYjeGE7CS5zdDE4e2ZpbGw6IzAwMTEzNTtzdHJva2U6I0ZGRkZGRjtzdHJva2Utd2lkdGg6NDtzdHJva2UtbGluZWNhcDpyb3VuZDtzdHJva2UtbGluZWpvaW46cm91bmQ7fSYjeGE7CS5zdDE5e2ZpbGw6I0ZGRkZGRjtzdHJva2U6I0ZGRkZGRjtzdHJva2Utd2lkdGg6MC41O30mI3hhOwkuc3QyMHtmaWxsOm5vbmU7c3Ryb2tlOiNGRkZGRkY7c3Ryb2tlLXdpZHRoOjQ7c3Ryb2tlLWxpbmVjYXA6cm91bmQ7c3Ryb2tlLW1pdGVybGltaXQ6MTA7fSYjeGE7CS5zdDIxe2ZpbGw6I0ZGRkZGRjtzdHJva2U6I0ZGRkZGRjtzdHJva2Utd2lkdGg6NDtzdHJva2UtbWl0ZXJsaW1pdDoxMDt9JiN4YTsJLnN0MjJ7ZmlsbDojMDAxMTM1O3N0cm9rZTojRkZGRkZGO3N0cm9rZS13aWR0aDo0O3N0cm9rZS1saW5lY2FwOnJvdW5kO3N0cm9rZS1taXRlcmxpbWl0OjEwO30mI3hhOwkuc3QyM3tmaWxsOm5vbmU7c3Ryb2tlOiNGRkZGRkY7c3Ryb2tlLXdpZHRoOjQ7c3Ryb2tlLWxpbmVjYXA6cm91bmQ7c3Ryb2tlLWxpbmVqb2luOnJvdW5kO30mI3hhOwkuc3QyNHtmaWxsOm5vbmU7c3Ryb2tlOiNGRkZGRkY7c3Ryb2tlLXdpZHRoOjQuMDAwMTt9JiN4YTsJLnN0MjV7ZmlsbDpub25lO3N0cm9rZTojRkZGRkZGO3N0cm9rZS13aWR0aDo0LjAwMDE7c3Ryb2tlLWxpbmVjYXA6cm91bmQ7fSYjeGE7CS5zdDI2e2ZpbGw6IzAwMTEzNTtzdHJva2U6I0ZGRkZGRjtzdHJva2Utd2lkdGg6NDt9JiN4YTsJLnN0Mjd7ZmlsbDpub25lO3N0cm9rZTojRkZGRkZGO3N0cm9rZS13aWR0aDo0O3N0cm9rZS1taXRlcmxpbWl0OjEwO3N0cm9rZS1kYXNoYXJyYXk6Ny45NjcsMy45ODM1O30mI3hhOwkuc3QyOHtmaWxsOm5vbmU7c3Ryb2tlOiNGRkZGRkY7c3Ryb2tlLXdpZHRoOjQ7c3Ryb2tlLW1pdGVybGltaXQ6MTA7c3Ryb2tlLWRhc2hhcnJheTo2LjU2MTQsMi4xODcxO30mI3hhOwkuc3QyOXtmaWxsOm5vbmU7c3Ryb2tlOiNGRkZGRkY7c3Ryb2tlLXdpZHRoOjQ7c3Ryb2tlLW1pdGVybGltaXQ6MTA7c3Ryb2tlLWRhc2hhcnJheToxNC4zOTA2LDQuNzk2OTt9JiN4YTsJLnN0MzB7ZmlsbDpub25lO3N0cm9rZTojRkZGRkZGO3N0cm9rZS13aWR0aDo0O3N0cm9rZS1taXRlcmxpbWl0OjEwO3N0cm9rZS1kYXNoYXJyYXk6OC44ODM5LDIuOTYxMzt9JiN4YTsJLnN0MzF7ZmlsbDpub25lO3N0cm9rZTojRkZGRkZGO3N0cm9rZS13aWR0aDo0O3N0cm9rZS1taXRlcmxpbWl0OjEwO3N0cm9rZS1kYXNoYXJyYXk6NC4zNzQzO30mI3hhOwkuc3QzMntmaWxsOm5vbmU7c3Ryb2tlOiNGRkZGRkY7c3Ryb2tlLXdpZHRoOjQ7c3Ryb2tlLW1pdGVybGltaXQ6MTA7c3Ryb2tlLWRhc2hhcnJheTo4LjIyNTgsMi43NDE5O30mI3hhOwkuc3QzM3tmaWxsOiMwMDExMzU7c3Ryb2tlOiNGRkZGRkY7c3Ryb2tlLXdpZHRoOjQuMDI1NTtzdHJva2UtbWl0ZXJsaW1pdDoxMDt9JiN4YTs8L3N0eWxlPiYjeGE7PHJlY3QgY2xhc3M9InN0MCIgd2lkdGg9IjE0MS43IiBoZWlnaHQ9IjE0MS43Ii8+JiN4YTs8cGF0aCBjbGFzcz0ic3QxIiBkPSJNNTcuNiwxMTYuMWgyNi41VjI1LjZINTcuNlYxMTYuMXogTTg4LjEsMTIwLjFINTMuNlYyMS42aDM0LjVWMTIwLjF6Ii8+JiN4YTs8cmVjdCB4PSI1NS42IiB5PSIzMy40IiBjbGFzcz0ic3QxIiB3aWR0aD0iMzAuNSIgaGVpZ2h0PSI0Ii8+JiN4YTs8cmVjdCB4PSI1NS42IiB5PSI4MC43IiBjbGFzcz0ic3QxIiB3aWR0aD0iMzAuNSIgaGVpZ2h0PSI0Ii8+JiN4YTs8cGF0aCBjbGFzcz0ic3QxIiBkPSJNNjQuNCw3MC45YzAtMS42LDEuMy0yLjgsMi44LTIuOGMxLjYsMCwyLjgsMS4zLDIuOCwyLjhjMCwxLjYtMS4zLDIuOC0yLjgsMi44QzY1LjYsNzMuNyw2NC40LDcyLjQsNjQuNCw3MC45Ii8+JiN4YTs8L3N2Zz4=;" vertex="1" parent="xijNGImhPQJAxCGllO0L-1">
          <mxGeometry x="304" y="436.29" width="26" height="26" as="geometry" />
        </mxCell>
        <mxCell id="xijNGImhPQJAxCGllO0L-30" value="" style="shape=image;editableCssRules=\.st[02];verticalLabelPosition=bottom;labelBackgroundColor=#ffffff;verticalAlign=top;aspect=fixed;imageAspect=0;image=data:image/svg+xml,PHN2ZyB4bWxucz0iaHR0cDovL3d3dy53My5vcmcvMjAwMC9zdmciIHhtbG5zOnhsaW5rPSJodHRwOi8vd3d3LnczLm9yZy8xOTk5L3hsaW5rIiB2ZXJzaW9uPSIxLjEiIGlkPSJMYXllcl8xIiB4PSIwcHgiIHk9IjBweCIgd2lkdGg9IjE0MS42OTk5OTY5NDgyNDIyIiBoZWlnaHQ9IjE0MS42OTk5OTY5NDgyNDIyIiB2aWV3Qm94PSIwIDAgMTQxLjY5OTk5Njk0ODI0MjIgMTQxLjY5OTk5Njk0ODI0MjIiIHN0eWxlPSJlbmFibGUtYmFja2dyb3VuZDpuZXcgMCAwIDE0MS43IDE0MS43OyIgeG1sOnNwYWNlPSJwcmVzZXJ2ZSI+JiN4YTs8c3R5bGUgdHlwZT0idGV4dC9jc3MiPiYjeGE7CS5zdDB7ZmlsbDojMDAxMTM1O30mI3hhOwkuc3Qxe2ZpbGw6I0ZGRkZGRjt9JiN4YTsJLnN0MntmaWxsOm5vbmU7c3Ryb2tlOiNGRkZGRkY7c3Ryb2tlLXdpZHRoOjQ7c3Ryb2tlLW1pdGVybGltaXQ6MTA7fSYjeGE7CS5zdDN7ZmlsbDpub25lO3N0cm9rZTojRkZGRkZGO3N0cm9rZS13aWR0aDo0O3N0cm9rZS1saW5lam9pbjpyb3VuZDt9JiN4YTsJLnN0NHtmaWxsOiNGRkZGRkY7c3Ryb2tlOiNGRkZGRkY7c3Ryb2tlLW1pdGVybGltaXQ6MTA7fSYjeGE7CS5zdDV7ZmlsbDpub25lO30mI3hhOwkuc3Q2e2ZpbGw6I0ZGRkZGRjtzdHJva2U6I0ZGRkZGRjtzdHJva2Utd2lkdGg6MS42O3N0cm9rZS1taXRlcmxpbWl0OjEwO30mI3hhOwkuc3Q3e2ZpbGw6bm9uZTtzdHJva2U6I0ZGRkZGRjtzdHJva2Utd2lkdGg6NDt9JiN4YTsJLnN0OHtmaWxsOiMwMDExMzU7c3Ryb2tlOiNGRkZGRkY7c3Ryb2tlLXdpZHRoOjQ7c3Ryb2tlLW1pdGVybGltaXQ6MTA7fSYjeGE7CS5zdDl7ZmlsbDpub25lO3N0cm9rZTojRkZGRkZGO3N0cm9rZS13aWR0aDo0LjAwMDI7c3Ryb2tlLW1pdGVybGltaXQ6MTA7fSYjeGE7CS5zdDEwe2ZpbGw6bm9uZTtzdHJva2U6I0ZGRkZGRjtzdHJva2Utd2lkdGg6MC4zO3N0cm9rZS1taXRlcmxpbWl0OjEwO30mI3hhOwkuc3QxMXtmaWxsOm5vbmU7c3Ryb2tlOiNGRkZGRkY7c3Ryb2tlLXdpZHRoOjMuOTk5NTtzdHJva2UtbWl0ZXJsaW1pdDoxMDt9JiN4YTsJLnN0MTJ7ZmlsbDpub25lO3N0cm9rZTojRkZGRkZGO3N0cm9rZS13aWR0aDozLjk5OTY7c3Ryb2tlLW1pdGVybGltaXQ6MTA7fSYjeGE7CS5zdDEze2ZpbGw6bm9uZTtzdHJva2U6I0ZGRkZGRjtzdHJva2Utd2lkdGg6MztzdHJva2UtbWl0ZXJsaW1pdDoxMDt9JiN4YTsJLnN0MTR7ZmlsbDpub25lO3N0cm9rZTojRkZGRkZGO3N0cm9rZS13aWR0aDo0O3N0cm9rZS1saW5lam9pbjpyb3VuZDtzdHJva2UtbWl0ZXJsaW1pdDoxMDt9JiN4YTsJLnN0MTV7ZmlsbDpub25lO3N0cm9rZTojRkZGRkZGO3N0cm9rZS13aWR0aDo0O3N0cm9rZS1saW5lY2FwOnJvdW5kO3N0cm9rZS1saW5lam9pbjpyb3VuZDtzdHJva2UtbWl0ZXJsaW1pdDoxMDt9JiN4YTsJLnN0MTZ7ZmlsbDojMDAxODQ1O3N0cm9rZTojRkZGRkZGO3N0cm9rZS13aWR0aDo0LjM1NjY7c3Ryb2tlLWxpbmVjYXA6cm91bmQ7c3Ryb2tlLWxpbmVqb2luOnJvdW5kO3N0cm9rZS1taXRlcmxpbWl0OjEwO30mI3hhOwkuc3QxN3tmaWxsOm5vbmU7c3Ryb2tlOiNGRkZGRkY7c3Ryb2tlLXdpZHRoOjQ7c3Ryb2tlLWxpbmVjYXA6cm91bmQ7fSYjeGE7CS5zdDE4e2ZpbGw6IzAwMTEzNTtzdHJva2U6I0ZGRkZGRjtzdHJva2Utd2lkdGg6NDtzdHJva2UtbGluZWNhcDpyb3VuZDtzdHJva2UtbGluZWpvaW46cm91bmQ7fSYjeGE7CS5zdDE5e2ZpbGw6I0ZGRkZGRjtzdHJva2U6I0ZGRkZGRjtzdHJva2Utd2lkdGg6MC41O30mI3hhOwkuc3QyMHtmaWxsOm5vbmU7c3Ryb2tlOiNGRkZGRkY7c3Ryb2tlLXdpZHRoOjQ7c3Ryb2tlLWxpbmVjYXA6cm91bmQ7c3Ryb2tlLW1pdGVybGltaXQ6MTA7fSYjeGE7CS5zdDIxe2ZpbGw6I0ZGRkZGRjtzdHJva2U6I0ZGRkZGRjtzdHJva2Utd2lkdGg6NDtzdHJva2UtbWl0ZXJsaW1pdDoxMDt9JiN4YTsJLnN0MjJ7ZmlsbDojMDAxMTM1O3N0cm9rZTojRkZGRkZGO3N0cm9rZS13aWR0aDo0O3N0cm9rZS1saW5lY2FwOnJvdW5kO3N0cm9rZS1taXRlcmxpbWl0OjEwO30mI3hhOwkuc3QyM3tmaWxsOm5vbmU7c3Ryb2tlOiNGRkZGRkY7c3Ryb2tlLXdpZHRoOjQ7c3Ryb2tlLWxpbmVjYXA6cm91bmQ7c3Ryb2tlLWxpbmVqb2luOnJvdW5kO30mI3hhOwkuc3QyNHtmaWxsOm5vbmU7c3Ryb2tlOiNGRkZGRkY7c3Ryb2tlLXdpZHRoOjQuMDAwMTt9JiN4YTsJLnN0MjV7ZmlsbDpub25lO3N0cm9rZTojRkZGRkZGO3N0cm9rZS13aWR0aDo0LjAwMDE7c3Ryb2tlLWxpbmVjYXA6cm91bmQ7fSYjeGE7CS5zdDI2e2ZpbGw6IzAwMTEzNTtzdHJva2U6I0ZGRkZGRjtzdHJva2Utd2lkdGg6NDt9JiN4YTsJLnN0Mjd7ZmlsbDpub25lO3N0cm9rZTojRkZGRkZGO3N0cm9rZS13aWR0aDo0O3N0cm9rZS1taXRlcmxpbWl0OjEwO3N0cm9rZS1kYXNoYXJyYXk6Ny45NjcsMy45ODM1O30mI3hhOwkuc3QyOHtmaWxsOm5vbmU7c3Ryb2tlOiNGRkZGRkY7c3Ryb2tlLXdpZHRoOjQ7c3Ryb2tlLW1pdGVybGltaXQ6MTA7c3Ryb2tlLWRhc2hhcnJheTo2LjU2MTQsMi4xODcxO30mI3hhOwkuc3QyOXtmaWxsOm5vbmU7c3Ryb2tlOiNGRkZGRkY7c3Ryb2tlLXdpZHRoOjQ7c3Ryb2tlLW1pdGVybGltaXQ6MTA7c3Ryb2tlLWRhc2hhcnJheToxNC4zOTA2LDQuNzk2OTt9JiN4YTsJLnN0MzB7ZmlsbDpub25lO3N0cm9rZTojRkZGRkZGO3N0cm9rZS13aWR0aDo0O3N0cm9rZS1taXRlcmxpbWl0OjEwO3N0cm9rZS1kYXNoYXJyYXk6OC44ODM5LDIuOTYxMzt9JiN4YTsJLnN0MzF7ZmlsbDpub25lO3N0cm9rZTojRkZGRkZGO3N0cm9rZS13aWR0aDo0O3N0cm9rZS1taXRlcmxpbWl0OjEwO3N0cm9rZS1kYXNoYXJyYXk6NC4zNzQzO30mI3hhOwkuc3QzMntmaWxsOm5vbmU7c3Ryb2tlOiNGRkZGRkY7c3Ryb2tlLXdpZHRoOjQ7c3Ryb2tlLW1pdGVybGltaXQ6MTA7c3Ryb2tlLWRhc2hhcnJheTo4LjIyNTgsMi43NDE5O30mI3hhOwkuc3QzM3tmaWxsOiMwMDExMzU7c3Ryb2tlOiNGRkZGRkY7c3Ryb2tlLXdpZHRoOjQuMDI1NTtzdHJva2UtbWl0ZXJsaW1pdDoxMDt9JiN4YTs8L3N0eWxlPiYjeGE7PHJlY3QgY2xhc3M9InN0MCIgd2lkdGg9IjE0MS43IiBoZWlnaHQ9IjE0MS43Ii8+JiN4YTs8cGF0aCBjbGFzcz0ic3QxIiBkPSJNNTcuNiwxMTYuMWgyNi41VjI1LjZINTcuNlYxMTYuMXogTTg4LjEsMTIwLjFINTMuNlYyMS42aDM0LjVWMTIwLjF6Ii8+JiN4YTs8cmVjdCB4PSI1NS42IiB5PSIzMy40IiBjbGFzcz0ic3QxIiB3aWR0aD0iMzAuNSIgaGVpZ2h0PSI0Ii8+JiN4YTs8cmVjdCB4PSI1NS42IiB5PSI4MC43IiBjbGFzcz0ic3QxIiB3aWR0aD0iMzAuNSIgaGVpZ2h0PSI0Ii8+JiN4YTs8cGF0aCBjbGFzcz0ic3QxIiBkPSJNNjQuNCw3MC45YzAtMS42LDEuMy0yLjgsMi44LTIuOGMxLjYsMCwyLjgsMS4zLDIuOCwyLjhjMCwxLjYtMS4zLDIuOC0yLjgsMi44QzY1LjYsNzMuNyw2NC40LDcyLjQsNjQuNCw3MC45Ii8+JiN4YTs8L3N2Zz4=;" vertex="1" parent="xijNGImhPQJAxCGllO0L-1">
          <mxGeometry x="435" y="436.29" width="26" height="26" as="geometry" />
        </mxCell>
        <mxCell id="xijNGImhPQJAxCGllO0L-31" value="" style="group;fontFamily=Manrope;fontSource=https%3A%2F%2Ffonts.googleapis.com%2Fcss%3Ffamily%3DManrope;" vertex="1" connectable="0" parent="xijNGImhPQJAxCGllO0L-1">
          <mxGeometry x="324" y="376.21" width="30" height="30" as="geometry" />
        </mxCell>
        <mxCell id="xijNGImhPQJAxCGllO0L-32" value="" style="whiteSpace=wrap;html=1;aspect=fixed;fillColor=#001135;strokeColor=none;connectable=1;allowArrows=1;fontFamily=Manrope;fontSource=https%3A%2F%2Ffonts.googleapis.com%2Fcss%3Ffamily%3DManrope;" vertex="1" parent="xijNGImhPQJAxCGllO0L-31">
          <mxGeometry width="30" height="30" as="geometry" />
        </mxCell>
        <mxCell id="xijNGImhPQJAxCGllO0L-33" value="" style="endArrow=open;html=1;edgeStyle=orthogonalEdgeStyle;rounded=0;endFill=0;startSize=6;endSize=2;strokeColor=#FFFFFF;fontFamily=Manrope;fontSource=https%3A%2F%2Ffonts.googleapis.com%2Fcss%3Ffamily%3DManrope;" edge="1" parent="xijNGImhPQJAxCGllO0L-31">
          <mxGeometry width="50" height="50" relative="1" as="geometry">
            <mxPoint x="3" y="12" as="sourcePoint" />
            <mxPoint x="11" y="3" as="targetPoint" />
            <Array as="points">
              <mxPoint x="11" y="12" />
            </Array>
          </mxGeometry>
        </mxCell>
        <mxCell id="xijNGImhPQJAxCGllO0L-34" value="" style="endArrow=open;html=1;edgeStyle=orthogonalEdgeStyle;rounded=0;endFill=0;startSize=6;endSize=2;strokeColor=#FFFFFF;fontFamily=Manrope;fontSource=https%3A%2F%2Ffonts.googleapis.com%2Fcss%3Ffamily%3DManrope;" edge="1" parent="xijNGImhPQJAxCGllO0L-31">
          <mxGeometry width="50" height="50" relative="1" as="geometry">
            <mxPoint x="11" y="27" as="sourcePoint" />
            <mxPoint x="3" y="19" as="targetPoint" />
            <Array as="points">
              <mxPoint x="11" y="19" />
            </Array>
          </mxGeometry>
        </mxCell>
        <mxCell id="xijNGImhPQJAxCGllO0L-35" value="" style="endArrow=open;html=1;edgeStyle=orthogonalEdgeStyle;rounded=0;endFill=0;startSize=6;endSize=2;strokeColor=#FFFFFF;fontFamily=Manrope;fontSource=https%3A%2F%2Ffonts.googleapis.com%2Fcss%3Ffamily%3DManrope;" edge="1" parent="xijNGImhPQJAxCGllO0L-31">
          <mxGeometry width="50" height="50" relative="1" as="geometry">
            <mxPoint x="18" y="3" as="sourcePoint" />
            <mxPoint x="27" y="12" as="targetPoint" />
            <Array as="points">
              <mxPoint x="18" y="12" />
            </Array>
          </mxGeometry>
        </mxCell>
        <mxCell id="xijNGImhPQJAxCGllO0L-36" value="" style="endArrow=open;html=1;edgeStyle=orthogonalEdgeStyle;rounded=0;endFill=0;startSize=6;endSize=2;strokeColor=#FFFFFF;fontFamily=Manrope;fontSource=https%3A%2F%2Ffonts.googleapis.com%2Fcss%3Ffamily%3DManrope;" edge="1" parent="xijNGImhPQJAxCGllO0L-31">
          <mxGeometry width="50" height="50" relative="1" as="geometry">
            <mxPoint x="27" y="19" as="sourcePoint" />
            <mxPoint x="18" y="27" as="targetPoint" />
            <Array as="points">
              <mxPoint x="18" y="19" />
            </Array>
          </mxGeometry>
        </mxCell>
        <mxCell id="xijNGImhPQJAxCGllO0L-37" value="&lt;font&gt;leaf2&lt;br&gt;&lt;/font&gt;" style="text;html=1;align=center;verticalAlign=middle;resizable=0;points=[];autosize=1;fontSize=10;fontFamily=Manrope;fontStyle=0;fontColor=#FFFFFF;" vertex="1" parent="xijNGImhPQJAxCGllO0L-1">
          <mxGeometry x="346" y="362" width="34" height="17" as="geometry" />
        </mxCell>
        <mxCell id="xijNGImhPQJAxCGllO0L-39" value="" style="group;fontFamily=Manrope;fontSource=https%3A%2F%2Ffonts.googleapis.com%2Fcss%3Ffamily%3DManrope;" vertex="1" connectable="0" parent="xijNGImhPQJAxCGllO0L-1">
          <mxGeometry x="452" y="376.21" width="30" height="35.79000000000002" as="geometry" />
        </mxCell>
        <mxCell id="xijNGImhPQJAxCGllO0L-40" value="" style="whiteSpace=wrap;html=1;aspect=fixed;fillColor=#001135;strokeColor=none;connectable=1;allowArrows=1;fontFamily=Manrope;fontSource=https%3A%2F%2Ffonts.googleapis.com%2Fcss%3Ffamily%3DManrope;" vertex="1" parent="xijNGImhPQJAxCGllO0L-39">
          <mxGeometry width="30" height="30" as="geometry" />
        </mxCell>
        <mxCell id="xijNGImhPQJAxCGllO0L-41" value="" style="endArrow=open;html=1;edgeStyle=orthogonalEdgeStyle;rounded=0;endFill=0;startSize=6;endSize=2;strokeColor=#FFFFFF;fontFamily=Manrope;fontSource=https%3A%2F%2Ffonts.googleapis.com%2Fcss%3Ffamily%3DManrope;" edge="1" parent="xijNGImhPQJAxCGllO0L-39">
          <mxGeometry width="50" height="50" relative="1" as="geometry">
            <mxPoint x="3" y="12" as="sourcePoint" />
            <mxPoint x="11" y="3" as="targetPoint" />
            <Array as="points">
              <mxPoint x="11" y="12" />
            </Array>
          </mxGeometry>
        </mxCell>
        <mxCell id="xijNGImhPQJAxCGllO0L-42" value="" style="endArrow=open;html=1;edgeStyle=orthogonalEdgeStyle;rounded=0;endFill=0;startSize=6;endSize=2;strokeColor=#FFFFFF;fontFamily=Manrope;fontSource=https%3A%2F%2Ffonts.googleapis.com%2Fcss%3Ffamily%3DManrope;" edge="1" parent="xijNGImhPQJAxCGllO0L-39">
          <mxGeometry width="50" height="50" relative="1" as="geometry">
            <mxPoint x="11" y="27" as="sourcePoint" />
            <mxPoint x="3" y="19" as="targetPoint" />
            <Array as="points">
              <mxPoint x="11" y="19" />
            </Array>
          </mxGeometry>
        </mxCell>
        <mxCell id="xijNGImhPQJAxCGllO0L-43" value="" style="endArrow=open;html=1;edgeStyle=orthogonalEdgeStyle;rounded=0;endFill=0;startSize=6;endSize=2;strokeColor=#FFFFFF;fontFamily=Manrope;fontSource=https%3A%2F%2Ffonts.googleapis.com%2Fcss%3Ffamily%3DManrope;" edge="1" parent="xijNGImhPQJAxCGllO0L-39">
          <mxGeometry width="50" height="50" relative="1" as="geometry">
            <mxPoint x="18" y="3" as="sourcePoint" />
            <mxPoint x="27" y="12" as="targetPoint" />
            <Array as="points">
              <mxPoint x="18" y="12" />
            </Array>
          </mxGeometry>
        </mxCell>
        <mxCell id="xijNGImhPQJAxCGllO0L-44" value="" style="endArrow=open;html=1;edgeStyle=orthogonalEdgeStyle;rounded=0;endFill=0;startSize=6;endSize=2;strokeColor=#FFFFFF;fontFamily=Manrope;fontSource=https%3A%2F%2Ffonts.googleapis.com%2Fcss%3Ffamily%3DManrope;" edge="1" parent="xijNGImhPQJAxCGllO0L-39">
          <mxGeometry width="50" height="50" relative="1" as="geometry">
            <mxPoint x="27" y="19" as="sourcePoint" />
            <mxPoint x="18" y="27" as="targetPoint" />
            <Array as="points">
              <mxPoint x="18" y="19" />
            </Array>
          </mxGeometry>
        </mxCell>
        <mxCell id="qC55MVkfCOsU_-m7H0vn-18" value="1" style="ellipse;whiteSpace=wrap;html=1;aspect=fixed;fontColor=#FFFFFF;fontSize=6;strokeColor=#98A2AE;fontFamily=Manrope;fontSource=https%3A%2F%2Ffonts.googleapis.com%2Fcss%3Ffamily%3DManrope;fillColor=#BEC8D2;" vertex="1" parent="xijNGImhPQJAxCGllO0L-39">
          <mxGeometry x="11" y="27.79000000000002" width="8" height="8" as="geometry" />
        </mxCell>
        <mxCell id="xijNGImhPQJAxCGllO0L-45" value="&lt;font&gt;leaf4&lt;br&gt;&lt;/font&gt;" style="text;html=1;align=center;verticalAlign=middle;resizable=0;points=[];autosize=1;fontSize=10;fontFamily=Manrope;fontStyle=0;fontColor=#FFFFFF;" vertex="1" parent="xijNGImhPQJAxCGllO0L-1">
          <mxGeometry x="473" y="361" width="34" height="17" as="geometry" />
        </mxCell>
        <mxCell id="xijNGImhPQJAxCGllO0L-46" style="rounded=0;orthogonalLoop=1;jettySize=auto;html=1;startSize=6;endArrow=none;endFill=0;endSize=2;fontFamily=Manrope;fontSize=8;strokeColor=#98A2AE;fontSource=https%3A%2F%2Ffonts.googleapis.com%2Fcss%3Ffamily%3DManrope;entryX=0.5;entryY=0;entryDx=0;entryDy=0;exitX=0.5;exitY=1;exitDx=0;exitDy=0;" edge="1" parent="xijNGImhPQJAxCGllO0L-1" source="qC55MVkfCOsU_-m7H0vn-18" target="qC55MVkfCOsU_-m7H0vn-15">
          <mxGeometry relative="1" as="geometry">
            <mxPoint x="429" y="408" as="sourcePoint" />
            <mxPoint x="429" y="437.28999999999996" as="targetPoint" />
          </mxGeometry>
        </mxCell>
        <mxCell id="xijNGImhPQJAxCGllO0L-47" style="rounded=0;orthogonalLoop=1;jettySize=auto;html=1;exitX=0.5;exitY=0;exitDx=0;exitDy=0;entryX=0.575;entryY=0.992;entryDx=0;entryDy=0;startSize=6;endArrow=none;endFill=0;endSize=2;fontFamily=Manrope;fontSize=8;strokeColor=#98A2AE;fontSource=https%3A%2F%2Ffonts.googleapis.com%2Fcss%3Ffamily%3DManrope;entryPerimeter=0;" edge="1" parent="xijNGImhPQJAxCGllO0L-1" source="qC55MVkfCOsU_-m7H0vn-20" target="qC55MVkfCOsU_-m7H0vn-13">
          <mxGeometry relative="1" as="geometry">
            <mxPoint x="429" y="359" as="sourcePoint" />
            <mxPoint x="374" y="303" as="targetPoint" />
          </mxGeometry>
        </mxCell>
        <mxCell id="xijNGImhPQJAxCGllO0L-48" style="rounded=0;orthogonalLoop=1;jettySize=auto;html=1;exitX=0.5;exitY=0;exitDx=0;exitDy=0;startSize=6;endArrow=none;endFill=0;endSize=2;fontFamily=Manrope;fontSize=8;strokeColor=#98A2AE;fontSource=https%3A%2F%2Ffonts.googleapis.com%2Fcss%3Ffamily%3DManrope;entryX=0.5;entryY=1;entryDx=0;entryDy=0;startArrow=none;" edge="1" parent="xijNGImhPQJAxCGllO0L-1" source="qC55MVkfCOsU_-m7H0vn-10">
          <mxGeometry relative="1" as="geometry">
            <mxPoint x="294" y="359.21000000000004" as="sourcePoint" />
            <mxPoint x="378.5" y="303" as="targetPoint" />
          </mxGeometry>
        </mxCell>
        <mxCell id="qC55MVkfCOsU_-m7H0vn-0" style="rounded=0;orthogonalLoop=1;jettySize=auto;html=1;startSize=6;endArrow=none;endFill=0;endSize=2;fontFamily=Manrope;fontSize=8;strokeColor=#98A2AE;fontSource=https%3A%2F%2Ffonts.googleapis.com%2Fcss%3Ffamily%3DManrope;entryX=0.5;entryY=1;entryDx=0;entryDy=0;exitX=0.5;exitY=0;exitDx=0;exitDy=0;" edge="1" parent="xijNGImhPQJAxCGllO0L-1" source="qC55MVkfCOsU_-m7H0vn-4" target="qC55MVkfCOsU_-m7H0vn-1">
          <mxGeometry relative="1" as="geometry">
            <mxPoint x="393" y="398" as="sourcePoint" />
            <mxPoint x="375" y="402" as="targetPoint" />
            <Array as="points" />
          </mxGeometry>
        </mxCell>
        <mxCell id="qC55MVkfCOsU_-m7H0vn-1" value="1" style="ellipse;whiteSpace=wrap;html=1;aspect=fixed;fontColor=#FFFFFF;fontSize=6;strokeColor=#98A2AE;fontFamily=Manrope;fontSource=https%3A%2F%2Ffonts.googleapis.com%2Fcss%3Ffamily%3DManrope;fillColor=#BEC8D2;" vertex="1" parent="xijNGImhPQJAxCGllO0L-1">
          <mxGeometry x="335" y="404" width="8" height="8" as="geometry" />
        </mxCell>
        <mxCell id="qC55MVkfCOsU_-m7H0vn-2" value="eth1" style="whiteSpace=wrap;html=1;fontFamily=Manrope;fontSource=https%3A%2F%2Ffonts.googleapis.com%2Fcss%3Ffamily%3DManrope;fontSize=6;align=center;fillColor=#BEC8D2;fontColor=#FFFFFF;strokeColor=#98A2AE;perimeterSpacing=0;rounded=1;" vertex="1" parent="xijNGImhPQJAxCGllO0L-1">
          <mxGeometry x="302" y="430.29" width="14" height="6" as="geometry" />
        </mxCell>
        <mxCell id="qC55MVkfCOsU_-m7H0vn-4" value="eth2" style="whiteSpace=wrap;html=1;fontFamily=Manrope;fontSource=https%3A%2F%2Ffonts.googleapis.com%2Fcss%3Ffamily%3DManrope;fontSize=6;align=center;fillColor=#BEC8D2;fontColor=#FFFFFF;strokeColor=#98A2AE;perimeterSpacing=0;rounded=1;" vertex="1" parent="xijNGImhPQJAxCGllO0L-1">
          <mxGeometry x="318" y="430.29" width="14" height="6" as="geometry" />
        </mxCell>
        <mxCell id="qC55MVkfCOsU_-m7H0vn-5" value="1" style="ellipse;whiteSpace=wrap;html=1;aspect=fixed;fontColor=#FFFFFF;fontSize=6;strokeColor=#98A2AE;fontFamily=Manrope;fontSource=https%3A%2F%2Ffonts.googleapis.com%2Fcss%3Ffamily%3DManrope;fillColor=#BEC8D2;" vertex="1" parent="xijNGImhPQJAxCGllO0L-1">
          <mxGeometry x="292" y="404" width="8" height="8" as="geometry" />
        </mxCell>
        <mxCell id="qC55MVkfCOsU_-m7H0vn-7" value="49" style="ellipse;whiteSpace=wrap;html=1;aspect=fixed;fontColor=#FFFFFF;fontSize=6;strokeColor=#98A2AE;fontFamily=Manrope;fontSource=https%3A%2F%2Ffonts.googleapis.com%2Fcss%3Ffamily%3DManrope;fillColor=#BEC8D2;" vertex="1" parent="xijNGImhPQJAxCGllO0L-1">
          <mxGeometry x="335" y="370" width="8" height="8" as="geometry" />
        </mxCell>
        <mxCell id="qC55MVkfCOsU_-m7H0vn-10" value="2" style="ellipse;whiteSpace=wrap;html=1;aspect=fixed;fontColor=#FFFFFF;fontSize=6;strokeColor=#98A2AE;fontFamily=Manrope;fontSource=https%3A%2F%2Ffonts.googleapis.com%2Fcss%3Ffamily%3DManrope;fillColor=#BEC8D2;" vertex="1" parent="xijNGImhPQJAxCGllO0L-1">
          <mxGeometry x="374" y="300" width="8" height="8" as="geometry" />
        </mxCell>
        <mxCell id="qC55MVkfCOsU_-m7H0vn-11" value="" style="rounded=0;orthogonalLoop=1;jettySize=auto;html=1;exitX=0.5;exitY=0;exitDx=0;exitDy=0;startSize=6;endArrow=none;endFill=0;endSize=2;fontFamily=Manrope;fontSize=8;strokeColor=#98A2AE;fontSource=https%3A%2F%2Ffonts.googleapis.com%2Fcss%3Ffamily%3DManrope;entryX=0.5;entryY=1;entryDx=0;entryDy=0;startArrow=none;" edge="1" parent="xijNGImhPQJAxCGllO0L-1" source="qC55MVkfCOsU_-m7H0vn-7" target="qC55MVkfCOsU_-m7H0vn-10">
          <mxGeometry relative="1" as="geometry">
            <mxPoint x="339" y="351" as="sourcePoint" />
            <mxPoint x="381.5" y="302" as="targetPoint" />
          </mxGeometry>
        </mxCell>
        <mxCell id="qC55MVkfCOsU_-m7H0vn-14" value="eth1" style="whiteSpace=wrap;html=1;fontFamily=Manrope;fontSource=https%3A%2F%2Ffonts.googleapis.com%2Fcss%3Ffamily%3DManrope;fontSize=6;align=center;fillColor=#BEC8D2;fontColor=#FFFFFF;strokeColor=#98A2AE;perimeterSpacing=0;rounded=1;" vertex="1" parent="xijNGImhPQJAxCGllO0L-1">
          <mxGeometry x="433" y="430.29" width="14" height="6" as="geometry" />
        </mxCell>
        <mxCell id="qC55MVkfCOsU_-m7H0vn-15" value="eth2" style="whiteSpace=wrap;html=1;fontFamily=Manrope;fontSource=https%3A%2F%2Ffonts.googleapis.com%2Fcss%3Ffamily%3DManrope;fontSize=6;align=center;fillColor=#BEC8D2;fontColor=#FFFFFF;strokeColor=#98A2AE;perimeterSpacing=0;rounded=1;" vertex="1" parent="xijNGImhPQJAxCGllO0L-1">
          <mxGeometry x="449" y="430.29" width="14" height="6" as="geometry" />
        </mxCell>
        <mxCell id="qC55MVkfCOsU_-m7H0vn-16" value="1" style="ellipse;whiteSpace=wrap;html=1;aspect=fixed;fontColor=#FFFFFF;fontSize=6;strokeColor=#98A2AE;fontFamily=Manrope;fontSource=https%3A%2F%2Ffonts.googleapis.com%2Fcss%3Ffamily%3DManrope;fillColor=#BEC8D2;" vertex="1" parent="xijNGImhPQJAxCGllO0L-1">
          <mxGeometry x="424" y="404" width="8" height="8" as="geometry" />
        </mxCell>
        <mxCell id="qC55MVkfCOsU_-m7H0vn-20" value="49" style="ellipse;whiteSpace=wrap;html=1;aspect=fixed;fontColor=#FFFFFF;fontSize=6;strokeColor=#98A2AE;fontFamily=Manrope;fontSource=https%3A%2F%2Ffonts.googleapis.com%2Fcss%3Ffamily%3DManrope;fillColor=#BEC8D2;" vertex="1" parent="xijNGImhPQJAxCGllO0L-1">
          <mxGeometry x="463" y="371" width="8" height="8" as="geometry" />
        </mxCell>
        <mxCell id="qC55MVkfCOsU_-m7H0vn-21" value="&lt;div style=&quot;font-size: 6px&quot;&gt;&lt;span style=&quot;color: rgb(255 , 255 , 255) ; font-size: 6px&quot;&gt;192.168.11.0/30&lt;/span&gt;&lt;/div&gt;" style="text;html=1;align=center;verticalAlign=middle;resizable=0;points=[];autosize=1;fontSize=6;fontFamily=Fira Code;fontColor=#001135;fontSource=https%3A%2F%2Ffonts.googleapis.com%2Fcss%3Ffamily%3DFira%2BCode;connectable=0;rotation=-42;fillColor=#4D5766;opacity=60;" vertex="1" parent="xijNGImhPQJAxCGllO0L-1">
          <mxGeometry x="295.5" y="334" width="66" height="12" as="geometry" />
        </mxCell>
        <mxCell id="qC55MVkfCOsU_-m7H0vn-22" value="&lt;div style=&quot;font-size: 6px&quot;&gt;&lt;span style=&quot;color: rgb(255 , 255 , 255) ; font-size: 6px&quot;&gt;192.168.21.0/30&lt;/span&gt;&lt;/div&gt;" style="text;html=1;align=center;verticalAlign=middle;resizable=0;points=[];autosize=1;fontSize=6;fontFamily=Fira Code;fontColor=#001135;fontSource=https%3A%2F%2Ffonts.googleapis.com%2Fcss%3Ffamily%3DFira%2BCode;connectable=0;rotation=302;fillColor=#4D5766;opacity=60;" vertex="1" parent="xijNGImhPQJAxCGllO0L-1">
          <mxGeometry x="325" y="334" width="65" height="12" as="geometry" />
        </mxCell>
        <mxCell id="qC55MVkfCOsU_-m7H0vn-23" value="&lt;div style=&quot;font-size: 6px&quot;&gt;&lt;span style=&quot;color: rgb(255 , 255 , 255) ; font-size: 6px&quot;&gt;192.168.31.0/30&lt;/span&gt;&lt;/div&gt;" style="text;html=1;align=center;verticalAlign=middle;resizable=0;points=[];autosize=1;fontSize=6;fontFamily=Fira Code;fontColor=#001135;fontSource=https%3A%2F%2Ffonts.googleapis.com%2Fcss%3Ffamily%3DFira%2BCode;connectable=0;rotation=55;fillColor=#4D5766;opacity=60;" vertex="1" parent="xijNGImhPQJAxCGllO0L-1">
          <mxGeometry x="375" y="334" width="65" height="12" as="geometry" />
        </mxCell>
        <mxCell id="qC55MVkfCOsU_-m7H0vn-25" value="&lt;div style=&quot;font-size: 6px&quot;&gt;&lt;span style=&quot;color: rgb(255 , 255 , 255) ; font-size: 6px&quot;&gt;192.168.41.0/30&lt;/span&gt;&lt;/div&gt;" style="text;html=1;align=center;verticalAlign=middle;resizable=0;points=[];autosize=1;fontSize=6;fontFamily=Fira Code;fontColor=#001135;fontSource=https%3A%2F%2Ffonts.googleapis.com%2Fcss%3Ffamily%3DFira%2BCode;connectable=0;rotation=41;fillColor=#4D5766;opacity=60;" vertex="1" parent="xijNGImhPQJAxCGllO0L-1">
          <mxGeometry x="400" y="334" width="65" height="12" as="geometry" />
        </mxCell>
        <mxCell id="qC55MVkfCOsU_-m7H0vn-26" value="on leaf-spine links leafs endpoints are addressed with &lt;font style=&quot;font-size: 8px&quot; face=&quot;Fira Code&quot; data-font-src=&quot;https://fonts.googleapis.com/css?family=Fira+Code&quot; color=&quot;#bec8d2&quot;&gt;.1&lt;/font&gt;, spines with &lt;font face=&quot;Fira Code&quot; data-font-src=&quot;https://fonts.googleapis.com/css?family=Fira+Code&quot; style=&quot;font-size: 8px&quot; color=&quot;#bec8d2&quot;&gt;.2&lt;/font&gt;&amp;nbsp;" style="text;html=1;align=left;verticalAlign=middle;resizable=0;points=[];autosize=1;fontSize=8;fontFamily=Manrope;fontStyle=0;fontColor=#FFFFFF;" vertex="1" parent="xijNGImhPQJAxCGllO0L-1">
          <mxGeometry x="247" y="496" width="278" height="16" as="geometry" />
        </mxCell>
      </root>
    </mxGraphModel>
  </diagram>
</mxfile>
